<svg xmlns="http://www.w3.org/2000/svg" xmlns:xlink="http://www.w3.org/1999/xlink" width="1920" zoomAndPan="magnify" viewBox="0 0 1440 809.999993" height="1080" preserveAspectRatio="xMidYMid meet" version="1.0"><path fill="#caddff" d="M 607.449219 347.128906 C 602.078125 359.152344 594.128906 382.167969 597.324219 410.796875 C 601.421875 447.53125 621.71875 476.492188 641.460938 492.765625 C 706.96875 546.761719 826.894531 511.878906 842.777344 461.011719 C 845.65625 451.78125 844.84375 442.882812 843.851562 431.929688 C 840.679688 397.097656 823.980469 386.746094 812.75 349.761719 C 802.527344 316.101562 812.605469 312.316406 803.050781 297.351562 C 782.316406 264.890625 722.472656 263.257812 681.296875 278.816406 C 665.480469 284.796875 627.101562 303.128906 607.449219 347.128906 " fill-opacity="1" fill-rule="nonzero"/><path fill="#142d49" d="M 843.054688 480.359375 L 840.851562 482.238281 C 839.609375 483.300781 837.207031 484.304688 835.609375 483.96875 L 596.140625 279.125 C 596.117188 275.660156 597.921875 272.4375 600.890625 270.65625 C 603 269.390625 605.507812 268.96875 607.914062 269.46875 L 841.921875 318.355469 C 844.277344 318.847656 845.964844 320.925781 845.964844 323.335938 L 845.964844 474.050781 C 845.964844 476.476562 844.902344 478.785156 843.054688 480.359375 " fill-opacity="1" fill-rule="nonzero"/><path fill="#fefefe" d="M 835.914062 483.515625 L 602.492188 434.753906 C 598.867188 433.996094 596.273438 430.796875 596.273438 427.09375 L 596.273438 278.570312 C 596.273438 276.613281 598.070312 275.152344 599.984375 275.550781 L 834.023438 324.441406 C 836.378906 324.933594 838.066406 327.011719 838.066406 329.421875 L 838.066406 481.761719 C 838.066406 482.898438 837.023438 483.746094 835.914062 483.515625 " fill-opacity="1" fill-rule="nonzero"/><path fill="#000000" d="M 836.28125 484.007812 C 836.128906 484.007812 835.972656 483.992188 835.820312 483.957031 L 698.265625 455.222656 C 698.023438 455.171875 697.863281 454.933594 697.914062 454.6875 C 697.96875 454.441406 698.207031 454.285156 698.453125 454.335938 L 836.003906 483.070312 C 836.402344 483.152344 836.808594 483.054688 837.121094 482.796875 C 837.433594 482.542969 837.617188 482.164062 837.617188 481.761719 L 837.617188 329.421875 C 837.617188 327.238281 836.066406 325.332031 833.929688 324.886719 L 830.484375 324.164062 C 830.238281 324.113281 830.078125 323.875 830.128906 323.628906 C 830.179688 323.382812 830.421875 323.226562 830.667969 323.277344 L 834.113281 324 C 836.667969 324.53125 838.519531 326.8125 838.519531 329.421875 L 838.519531 481.761719 C 838.519531 482.441406 838.21875 483.074219 837.691406 483.503906 C 837.289062 483.832031 836.789062 484.007812 836.28125 484.007812 " fill-opacity="1" fill-rule="nonzero"/><path fill="#000000" d="M 596.628906 371.554688 C 596.378906 371.554688 596.175781 371.351562 596.175781 371.101562 L 595.820312 278.574219 C 595.820312 277.5 596.296875 276.5 597.125 275.828125 C 597.953125 275.152344 599.027344 274.890625 600.074219 275.109375 L 804.285156 317.769531 C 804.53125 317.820312 804.6875 318.058594 804.636719 318.304688 C 804.585938 318.546875 804.347656 318.707031 804.101562 318.65625 L 599.890625 275.996094 C 599.113281 275.832031 598.3125 276.027344 597.695312 276.53125 C 597.078125 277.03125 596.726562 277.777344 596.726562 278.570312 L 597.082031 371.097656 C 597.082031 371.347656 596.878906 371.550781 596.628906 371.554688 " fill-opacity="1" fill-rule="nonzero"/><path fill="#142d49" d="M 716.832031 441.574219 L 716.832031 447.382812 L 773.652344 458.894531 L 773.652344 453.089844 L 716.832031 441.574219 " fill-opacity="1" fill-rule="nonzero"/><path fill="#142d49" d="M 718.285156 442.320312 C 718.09375 442.320312 717.910156 442.386719 717.757812 442.511719 C 717.5625 442.671875 717.449219 442.910156 717.449219 443.160156 L 717.449219 446.328125 C 717.449219 446.722656 717.730469 447.070312 718.117188 447.148438 L 813.082031 466.683594 C 813.332031 466.734375 813.582031 466.671875 813.78125 466.511719 C 813.976562 466.351562 814.085938 466.113281 814.085938 465.863281 L 814.085938 462.691406 C 814.085938 462.296875 813.804688 461.949219 813.417969 461.871094 L 718.453125 442.339844 C 718.398438 442.328125 718.339844 442.320312 718.285156 442.320312 Z M 813.253906 467.609375 C 813.136719 467.609375 813.015625 467.597656 812.898438 467.570312 L 717.933594 448.039062 C 717.128906 447.871094 716.542969 447.152344 716.542969 446.328125 L 716.542969 443.160156 C 716.542969 442.632812 716.777344 442.140625 717.183594 441.808594 C 717.59375 441.476562 718.121094 441.34375 718.636719 441.453125 L 813.601562 460.984375 C 814.40625 461.148438 814.992188 461.867188 814.992188 462.691406 L 814.992188 465.863281 C 814.992188 466.386719 814.757812 466.882812 814.351562 467.214844 C 814.035156 467.472656 813.652344 467.609375 813.253906 467.609375 " fill-opacity="1" fill-rule="nonzero"/><path fill="#142d49" d="M 716.832031 429.410156 L 716.832031 435.214844 L 806.824219 453.632812 L 806.824219 447.828125 L 716.832031 429.410156 " fill-opacity="1" fill-rule="nonzero"/><path fill="#142d49" d="M 718.285156 430.15625 C 718.09375 430.15625 717.910156 430.21875 717.757812 430.34375 C 717.5625 430.503906 717.449219 430.742188 717.449219 430.996094 L 717.449219 434.160156 C 717.449219 434.558594 717.730469 434.902344 718.117188 434.984375 L 813.082031 454.515625 C 813.332031 454.566406 813.582031 454.503906 813.78125 454.34375 C 813.976562 454.183594 814.085938 453.949219 814.085938 453.695312 L 814.085938 450.523438 C 814.085938 450.128906 813.804688 449.785156 813.417969 449.703125 L 718.453125 430.171875 C 718.398438 430.160156 718.339844 430.15625 718.285156 430.15625 Z M 813.253906 455.441406 C 813.136719 455.441406 813.015625 455.429688 812.898438 455.402344 L 717.933594 435.871094 C 717.128906 435.707031 716.542969 434.984375 716.542969 434.160156 L 716.542969 430.996094 C 716.542969 430.46875 716.777344 429.972656 717.183594 429.640625 C 717.59375 429.308594 718.121094 429.179688 718.636719 429.285156 L 813.601562 448.816406 C 814.40625 448.980469 814.992188 449.699219 814.992188 450.523438 L 814.992188 453.695312 C 814.992188 454.222656 814.757812 454.714844 814.351562 455.046875 C 814.035156 455.304688 813.652344 455.441406 813.253906 455.441406 " fill-opacity="1" fill-rule="nonzero"/><path fill="#142d49" d="M 716.832031 417.242188 L 716.832031 423.046875 L 782.847656 436.535156 L 782.847656 430.726562 L 716.832031 417.242188 " fill-opacity="1" fill-rule="nonzero"/><path fill="#142d49" d="M 718.285156 417.988281 C 718.09375 417.988281 717.910156 418.050781 717.757812 418.175781 C 717.5625 418.335938 717.449219 418.574219 717.449219 418.824219 L 717.449219 421.992188 C 717.449219 422.390625 717.730469 422.734375 718.117188 422.816406 L 813.082031 442.347656 C 813.332031 442.398438 813.582031 442.335938 813.78125 442.175781 C 813.976562 442.019531 814.085938 441.777344 814.085938 441.527344 L 814.085938 438.359375 C 814.085938 437.960938 813.804688 437.613281 813.417969 437.535156 L 718.453125 418.003906 C 718.398438 417.992188 718.339844 417.988281 718.285156 417.988281 Z M 813.253906 443.273438 C 813.136719 443.273438 813.015625 443.261719 812.898438 443.238281 L 717.933594 423.703125 C 717.128906 423.535156 716.542969 422.816406 716.542969 421.992188 L 716.542969 418.824219 C 716.542969 418.296875 716.777344 417.804688 717.183594 417.472656 C 717.59375 417.140625 718.121094 417.007812 718.636719 417.117188 L 813.601562 436.648438 C 814.40625 436.8125 814.992188 437.53125 814.992188 438.359375 L 814.992188 441.527344 C 814.992188 442.054688 814.757812 442.546875 814.351562 442.878906 C 814.035156 443.136719 813.652344 443.273438 813.253906 443.273438 " fill-opacity="1" fill-rule="nonzero"/><path fill="#142d49" d="M 716.832031 405.074219 L 716.832031 410.878906 L 762.484375 420.09375 L 762.484375 414.285156 L 716.832031 405.074219 " fill-opacity="1" fill-rule="nonzero"/><path fill="#142d49" d="M 718.285156 405.820312 C 718.09375 405.820312 717.910156 405.886719 717.757812 406.007812 C 717.5625 406.167969 717.449219 406.40625 717.449219 406.660156 L 717.449219 409.824219 C 717.449219 410.222656 717.730469 410.566406 718.117188 410.648438 L 813.082031 430.179688 C 813.332031 430.230469 813.582031 430.167969 813.78125 430.007812 C 813.976562 429.847656 814.085938 429.613281 814.085938 429.359375 L 814.085938 426.191406 C 814.085938 425.792969 813.804688 425.449219 813.417969 425.367188 L 718.453125 405.835938 C 718.398438 405.824219 718.339844 405.820312 718.285156 405.820312 Z M 813.253906 431.105469 C 813.136719 431.105469 813.015625 431.09375 812.898438 431.070312 L 717.933594 411.535156 C 717.128906 411.371094 716.542969 410.648438 716.542969 409.824219 L 716.542969 406.660156 C 716.542969 406.132812 716.777344 405.636719 717.183594 405.304688 C 717.59375 404.972656 718.121094 404.84375 718.636719 404.949219 L 813.601562 424.480469 C 814.40625 424.644531 814.992188 425.363281 814.992188 426.191406 L 814.992188 429.359375 C 814.992188 429.886719 814.757812 430.378906 814.351562 430.710938 C 814.035156 430.96875 813.652344 431.105469 813.253906 431.105469 " fill-opacity="1" fill-rule="nonzero"/><path fill="#000000" d="M 807.738281 351.386719 L 807.738281 412.421875 C 807.738281 412.613281 807.871094 412.777344 808.058594 412.8125 L 813.679688 413.953125 C 813.925781 414.007812 814.15625 413.816406 814.152344 413.566406 L 813.984375 352.375 C 813.984375 352.183594 813.847656 352.019531 813.65625 351.988281 L 808.207031 350.996094 C 807.964844 350.953125 807.738281 351.140625 807.738281 351.386719 " fill-opacity="1" fill-rule="nonzero"/><path fill="#000000" d="M 794.929688 359.609375 L 794.929688 409.792969 C 794.929688 409.980469 795.0625 410.144531 795.246094 410.179688 L 800.871094 411.324219 C 801.117188 411.375 801.34375 411.183594 801.34375 410.933594 L 801.175781 360.597656 C 801.175781 360.40625 801.039062 360.242188 800.847656 360.207031 L 795.398438 359.21875 C 795.15625 359.175781 794.929688 359.363281 794.929688 359.609375 " fill-opacity="1" fill-rule="nonzero"/><path fill="#000000" d="M 782.121094 366.1875 L 782.121094 407.160156 C 782.121094 407.351562 782.253906 407.515625 782.4375 407.550781 L 788.058594 408.695312 C 788.304688 408.746094 788.535156 408.554688 788.535156 408.304688 L 788.367188 367.175781 C 788.367188 366.984375 788.230469 366.820312 788.042969 366.785156 L 782.589844 365.796875 C 782.34375 365.753906 782.121094 365.9375 782.121094 366.1875 " fill-opacity="1" fill-rule="nonzero"/><path fill="#000000" d="M 769.3125 371.777344 L 769.3125 404.53125 C 769.3125 404.71875 769.445312 404.882812 769.628906 404.917969 L 775.25 406.0625 C 775.5 406.113281 775.726562 405.921875 775.726562 405.671875 L 775.558594 372.765625 C 775.558594 372.574219 775.421875 372.410156 775.234375 372.375 L 769.777344 371.386719 C 769.535156 371.34375 769.3125 371.53125 769.3125 371.777344 " fill-opacity="1" fill-rule="nonzero"/><path fill="#000000" d="M 756.503906 376.382812 L 756.503906 401.902344 C 756.503906 402.089844 756.636719 402.25 756.820312 402.289062 L 762.441406 403.433594 C 762.6875 403.480469 762.917969 403.292969 762.914062 403.039062 L 762.75 377.367188 C 762.75 377.175781 762.613281 377.015625 762.421875 376.980469 L 756.96875 375.992188 C 756.726562 375.945312 756.503906 376.136719 756.503906 376.382812 " fill-opacity="1" fill-rule="nonzero"/><path fill="#000000" d="M 743.695312 382.628906 L 743.695312 399.269531 C 743.695312 399.460938 743.828125 399.621094 744.011719 399.660156 L 749.628906 400.800781 C 749.875 400.851562 750.109375 400.660156 750.105469 400.410156 L 749.941406 383.617188 C 749.941406 383.425781 749.800781 383.265625 749.617188 383.230469 L 744.160156 382.238281 C 743.917969 382.195312 743.695312 382.382812 743.695312 382.628906 " fill-opacity="1" fill-rule="nonzero"/><path fill="#000000" d="M 744.34375 376.699219 C 744.144531 376.699219 743.960938 376.5625 743.90625 376.359375 C 743.839844 376.117188 743.988281 375.871094 744.230469 375.804688 C 776.046875 367.453125 800.777344 347.855469 812.289062 333.605469 C 812.441406 333.414062 812.730469 333.382812 812.921875 333.539062 C 813.117188 333.699219 813.148438 333.984375 812.992188 334.179688 C 810.28125 337.53125 802.550781 346.339844 789.324219 355.683594 C 775.542969 365.421875 760.449219 372.488281 744.457031 376.683594 C 744.421875 376.695312 744.382812 376.699219 744.34375 376.699219 " fill-opacity="1" fill-rule="nonzero"/><path fill="#000000" d="M 813.042969 338.167969 C 813.042969 338.167969 813.042969 338.167969 813.039062 338.167969 C 812.789062 338.164062 812.589844 337.957031 812.589844 337.710938 L 812.636719 333.519531 L 808.566406 333.386719 C 808.316406 333.378906 808.121094 333.167969 808.128906 332.917969 C 808.136719 332.664062 808.34375 332.472656 808.597656 332.476562 L 813.109375 332.628906 C 813.355469 332.636719 813.550781 332.839844 813.546875 333.085938 L 813.496094 337.71875 C 813.492188 337.96875 813.292969 338.167969 813.042969 338.167969 " fill-opacity="1" fill-rule="nonzero"/><path fill="#caddff" d="M 766.089844 345.636719 C 762.265625 345.636719 759.167969 342.535156 759.167969 338.710938 C 759.167969 334.882812 762.265625 331.78125 766.089844 331.78125 C 769.910156 331.78125 773.007812 334.882812 773.007812 338.710938 C 773.007812 342.535156 769.910156 345.636719 766.089844 345.636719 Z M 766.089844 321.566406 C 756.632812 321.566406 748.96875 329.242188 748.96875 338.710938 C 748.96875 348.175781 756.632812 355.851562 766.089844 355.851562 C 775.542969 355.851562 783.210938 348.175781 783.210938 338.710938 C 783.210938 329.242188 775.542969 321.566406 766.089844 321.566406 " fill-opacity="1" fill-rule="nonzero"/><path fill="#000000" d="M 769.304688 321.871094 L 767.957031 332.042969 C 770.050781 332.632812 771.738281 334.175781 772.527344 336.179688 L 781.800781 331.898438 C 779.582031 326.769531 774.929688 322.941406 769.304688 321.871094 " fill-opacity="1" fill-rule="nonzero"/><path fill="#142d49" d="M 772.527344 336.179688 C 772.832031 336.964844 773.007812 337.816406 773.007812 338.710938 C 773.007812 339.214844 772.949219 339.707031 772.847656 340.179688 L 783.070312 340.859375 C 783.160156 340.152344 783.210938 339.4375 783.210938 338.710938 C 783.210938 336.207031 782.671875 333.835938 781.707031 331.691406 L 772.527344 336.179688 " fill-opacity="1" fill-rule="nonzero"/><path fill="#fefefe" d="M 803.171875 321.371094 L 824.960938 326.074219 L 838.914062 308.128906 L 803.171875 321.371094 " fill-opacity="1" fill-rule="nonzero"/><path fill="#000000" d="M 804.789062 321.257812 L 824.777344 325.570312 L 837.582031 309.105469 Z M 824.960938 326.527344 C 824.929688 326.527344 824.898438 326.523438 824.863281 326.515625 L 803.078125 321.816406 C 802.878906 321.773438 802.734375 321.605469 802.722656 321.40625 C 802.707031 321.203125 802.828125 321.015625 803.015625 320.945312 L 838.757812 307.703125 C 838.949219 307.632812 839.164062 307.695312 839.28125 307.859375 C 839.398438 308.023438 839.394531 308.246094 839.273438 308.40625 L 825.316406 326.351562 C 825.230469 326.464844 825.097656 326.527344 824.960938 326.527344 " fill-opacity="1" fill-rule="nonzero"/><path fill="#000000" d="M 814.519531 330.644531 L 810.992188 323.058594 L 830.261719 313.535156 L 814.820312 323.882812 L 819.371094 324.867188 L 814.519531 330.644531 " fill-opacity="1" fill-rule="nonzero"/><path fill="#000000" d="M 811.585938 323.269531 L 814.628906 329.8125 L 818.542969 325.152344 L 814.722656 324.328125 C 814.542969 324.289062 814.40625 324.148438 814.375 323.972656 C 814.339844 323.792969 814.414062 323.609375 814.566406 323.507812 L 824.289062 316.992188 Z M 814.519531 331.101562 C 814.5 331.101562 814.480469 331.101562 814.460938 331.097656 C 814.304688 331.074219 814.175781 330.980469 814.109375 330.839844 L 810.578125 323.25 C 810.472656 323.027344 810.566406 322.761719 810.789062 322.652344 L 830.058594 313.128906 C 830.273438 313.023438 830.53125 313.101562 830.652344 313.308594 C 830.773438 313.515625 830.710938 313.777344 830.511719 313.910156 L 815.957031 323.667969 L 819.46875 324.425781 C 819.621094 324.457031 819.75 324.570312 819.800781 324.71875 C 819.851562 324.871094 819.820312 325.039062 819.71875 325.160156 L 814.867188 330.941406 C 814.78125 331.042969 814.652344 331.101562 814.519531 331.101562 " fill-opacity="1" fill-rule="nonzero"/><path fill="#000000" d="M 814.640625 327.832031 C 814.632812 327.832031 814.628906 327.828125 814.617188 327.828125 C 814.386719 327.816406 814.210938 327.621094 814.222656 327.386719 L 814.398438 323.863281 C 814.40625 323.632812 814.597656 323.453125 814.839844 323.464844 C 815.070312 323.476562 815.25 323.675781 815.238281 323.90625 L 815.0625 327.429688 C 815.050781 327.65625 814.863281 327.832031 814.640625 327.832031 " fill-opacity="1" fill-rule="nonzero"/><path fill="#caddff" d="M 603.359375 286.515625 L 706.488281 309.207031 L 706.160156 436.804688 L 602.730469 414.441406 L 603.359375 286.515625 " fill-opacity="1" fill-rule="nonzero"/><path fill="#000000" d="M 620.222656 321.769531 C 620.222656 323.851562 618.535156 325.542969 616.453125 325.542969 C 614.371094 325.542969 612.683594 323.851562 612.683594 321.769531 C 612.683594 319.683594 614.371094 317.996094 616.453125 317.996094 C 618.535156 317.996094 620.222656 319.683594 620.222656 321.769531 " fill-opacity="1" fill-rule="nonzero"/><path fill="#000000" d="M 620.082031 335.324219 C 620.082031 337.40625 618.394531 339.097656 616.3125 339.097656 C 614.230469 339.097656 612.546875 337.40625 612.546875 335.324219 C 612.546875 333.238281 614.230469 331.550781 616.3125 331.550781 C 618.394531 331.550781 620.082031 333.238281 620.082031 335.324219 " fill-opacity="1" fill-rule="nonzero"/><path fill="#000000" d="M 620.082031 349.578125 C 620.082031 351.664062 618.394531 353.351562 616.3125 353.351562 C 614.230469 353.351562 612.546875 351.664062 612.546875 349.578125 C 612.546875 347.496094 614.230469 345.804688 616.3125 345.804688 C 618.394531 345.804688 620.082031 347.496094 620.082031 349.578125 " fill-opacity="1" fill-rule="nonzero"/><path fill="#000000" d="M 619.664062 363.976562 C 619.664062 366.058594 617.976562 367.746094 615.894531 367.746094 C 613.8125 367.746094 612.125 366.058594 612.125 363.976562 C 612.125 361.890625 613.8125 360.203125 615.894531 360.203125 C 617.976562 360.203125 619.664062 361.890625 619.664062 363.976562 " fill-opacity="1" fill-rule="nonzero"/><path fill="#000000" d="M 619.804688 378.089844 C 619.804688 380.175781 618.117188 381.863281 616.035156 381.863281 C 613.953125 381.863281 612.265625 380.175781 612.265625 378.089844 C 612.265625 376.007812 613.953125 374.316406 616.035156 374.316406 C 618.117188 374.316406 619.804688 376.007812 619.804688 378.089844 " fill-opacity="1" fill-rule="nonzero"/><path fill="#000000" d="M 619.804688 390.765625 C 619.804688 392.847656 618.117188 394.539062 616.035156 394.539062 C 613.953125 394.539062 612.265625 392.847656 612.265625 390.765625 C 612.265625 388.679688 613.953125 386.992188 616.035156 386.992188 C 618.117188 386.992188 619.804688 388.679688 619.804688 390.765625 " fill-opacity="1" fill-rule="nonzero"/><path fill="#000000" d="M 625.542969 320.175781 L 692.234375 335.207031 C 692.785156 335.332031 693.171875 335.820312 693.164062 336.382812 L 693.101562 341.308594 C 693.09375 342.066406 692.386719 342.621094 691.652344 342.457031 L 624.898438 327.433594 C 624.34375 327.308594 623.953125 326.808594 623.96875 326.242188 L 624.09375 321.308594 C 624.113281 320.558594 624.8125 320.011719 625.542969 320.175781 " fill-opacity="1" fill-rule="nonzero"/><path fill="#000000" d="M 625.203125 375.230469 L 691.996094 390.28125 C 692.519531 390.398438 692.890625 390.871094 692.886719 391.40625 L 692.820312 396.4375 C 692.8125 397.164062 692.140625 397.695312 691.433594 397.535156 L 624.578125 382.488281 C 624.046875 382.371094 623.675781 381.890625 623.6875 381.347656 L 623.816406 376.3125 C 623.835938 375.59375 624.503906 375.070312 625.203125 375.230469 " fill-opacity="1" fill-rule="nonzero"/><path fill="#000000" d="M 681.835938 346.558594 L 625.949219 333.964844 C 625.007812 333.753906 624.105469 334.457031 624.082031 335.421875 L 623.976562 339.65625 C 623.957031 340.386719 624.457031 341.03125 625.171875 341.191406 L 681.164062 353.792969 C 682.125 354.007812 683.03125 353.277344 683.03125 352.296875 L 683.03125 348.054688 C 683.03125 347.339844 682.535156 346.714844 681.835938 346.558594 " fill-opacity="1" fill-rule="nonzero"/><path fill="#000000" d="M 684.851562 374.632812 L 625.1875 361.1875 C 624.640625 361.0625 624.117188 361.472656 624.101562 362.03125 L 623.960938 367.578125 C 623.949219 368.003906 624.242188 368.375 624.65625 368.46875 L 684.460938 381.929688 C 685.015625 382.054688 685.546875 381.628906 685.546875 381.058594 L 685.546875 375.5 C 685.546875 375.082031 685.257812 374.722656 684.851562 374.632812 " fill-opacity="1" fill-rule="nonzero"/><path fill="#000000" d="M 684.699219 402.269531 L 625.703125 388.976562 C 624.890625 388.792969 624.109375 389.398438 624.089844 390.234375 L 623.972656 394.890625 C 623.957031 395.523438 624.386719 396.082031 625.003906 396.21875 L 684.117188 409.523438 C 684.945312 409.710938 685.730469 409.078125 685.730469 408.230469 L 685.730469 403.5625 C 685.730469 402.945312 685.300781 402.40625 684.699219 402.269531 " fill-opacity="1" fill-rule="nonzero"/><path fill="#000000" d="M 689.230469 362.136719 L 626.167969 347.925781 C 625.257812 347.722656 624.386719 348.402344 624.363281 349.335938 L 624.253906 353.675781 C 624.234375 354.382812 624.71875 355.003906 625.410156 355.160156 L 688.578125 369.375 C 689.503906 369.585938 690.386719 368.878906 690.386719 367.929688 L 690.386719 363.585938 C 690.386719 362.890625 689.90625 362.289062 689.230469 362.136719 " fill-opacity="1" fill-rule="nonzero"/><path fill="#000000" d="M 640.34375 308.113281 L 671.214844 314.835938 C 672.679688 315.15625 673.722656 316.457031 673.710938 317.960938 L 673.703125 319.296875 C 673.691406 321.3125 671.835938 322.804688 669.867188 322.386719 L 638.996094 315.789062 C 637.519531 315.472656 636.46875 314.160156 636.484375 312.648438 L 636.496094 311.1875 C 636.515625 309.175781 638.378906 307.6875 640.34375 308.113281 " fill-opacity="1" fill-rule="nonzero"/><path fill="#fefefe" d="M 659.214844 500.835938 L 659.871094 507.097656 L 664.097656 507.59375 L 664.097656 500.167969 L 659.214844 500.835938 " fill-opacity="1" fill-rule="nonzero"/><path fill="#000000" d="M 660.28125 506.691406 L 663.644531 507.085938 L 663.644531 500.6875 L 659.710938 501.226562 Z M 664.097656 508.046875 C 664.082031 508.046875 664.0625 508.046875 664.046875 508.046875 L 659.816406 507.550781 C 659.605469 507.523438 659.441406 507.359375 659.417969 507.148438 L 658.761719 500.882812 C 658.738281 500.636719 658.910156 500.417969 659.152344 500.386719 L 664.039062 499.71875 C 664.167969 499.703125 664.296875 499.742188 664.398438 499.828125 C 664.496094 499.914062 664.550781 500.035156 664.550781 500.167969 L 664.550781 507.59375 C 664.550781 507.726562 664.496094 507.847656 664.398438 507.933594 C 664.316406 508.007812 664.210938 508.046875 664.097656 508.046875 " fill-opacity="1" fill-rule="nonzero"/><path fill="#142d49" d="M 664.765625 518.5 C 663.003906 518.746094 660.113281 518.964844 656.71875 518.496094 C 655.605469 518.339844 654.871094 517.261719 655.136719 516.167969 C 655.886719 513.128906 657.171875 507.359375 659.382812 504.6875 L 659.929688 506.136719 L 660.6875 504.773438 C 660.792969 504.585938 660.980469 504.460938 661.191406 504.433594 L 662.851562 504.222656 C 663.199219 504.175781 663.519531 504.40625 663.59375 504.75 L 663.855469 506.007812 L 664.4375 504.355469 L 666.367188 516.378906 C 666.503906 517.40625 665.789062 518.355469 664.765625 518.5 " fill-opacity="1" fill-rule="nonzero"/><path fill="#000000" d="M 659.253906 505.628906 C 657.535156 508.222656 656.425781 512.796875 655.738281 515.621094 L 655.578125 516.277344 C 655.480469 516.675781 655.550781 517.085938 655.78125 517.425781 C 656.011719 517.765625 656.375 517.992188 656.78125 518.046875 C 660.09375 518.503906 662.914062 518.300781 664.703125 518.050781 C 665.476562 517.941406 666.023438 517.21875 665.917969 516.4375 L 664.273438 506.191406 C 664.195312 506.363281 664.015625 506.472656 663.828125 506.460938 C 663.625 506.449219 663.457031 506.300781 663.414062 506.101562 L 663.148438 504.84375 C 663.125 504.734375 663.019531 504.660156 662.910156 504.671875 L 661.25 504.882812 C 661.179688 504.890625 661.117188 504.933594 661.085938 504.992188 L 660.328125 506.359375 C 660.242188 506.511719 660.070312 506.601562 659.898438 506.589844 C 659.722656 506.578125 659.570312 506.464844 659.507812 506.296875 Z M 660.765625 519.226562 C 659.523438 519.226562 658.136719 519.148438 656.65625 518.945312 C 655.996094 518.855469 655.40625 518.484375 655.035156 517.933594 C 654.664062 517.386719 654.539062 516.703125 654.699219 516.0625 L 654.859375 515.40625 C 655.625 512.253906 656.90625 506.972656 659.03125 504.398438 C 659.136719 504.273438 659.296875 504.214844 659.457031 504.242188 C 659.613281 504.265625 659.75 504.375 659.804688 504.527344 L 660.007812 505.0625 L 660.292969 504.550781 C 660.464844 504.242188 660.78125 504.027344 661.132812 503.984375 L 662.796875 503.773438 C 663.277344 503.710938 663.738281 503.972656 663.945312 504.390625 L 664.007812 504.207031 C 664.078125 504.011719 664.277344 503.886719 664.476562 503.90625 C 664.683594 503.925781 664.851562 504.082031 664.882812 504.285156 L 666.816406 516.308594 C 666.984375 517.589844 666.09375 518.769531 664.828125 518.949219 C 663.785156 519.09375 662.394531 519.226562 660.765625 519.226562 " fill-opacity="1" fill-rule="nonzero"/><path fill="#000000" d="M 659.863281 517.210938 C 658.722656 517.210938 657.488281 517.109375 656.253906 516.828125 C 656.011719 516.773438 655.859375 516.53125 655.914062 516.285156 C 655.96875 516.042969 656.210938 515.886719 656.457031 515.945312 C 660.550781 516.878906 664.835938 515.679688 664.878906 515.664062 C 665.117188 515.59375 665.367188 515.734375 665.4375 515.976562 C 665.507812 516.21875 665.367188 516.46875 665.125 516.535156 C 664.996094 516.574219 662.726562 517.210938 659.863281 517.210938 " fill-opacity="1" fill-rule="nonzero"/><path fill="#000000" d="M 658.855469 512.554688 C 658.613281 512.554688 658.410156 512.359375 658.402344 512.117188 C 658.394531 511.867188 658.589844 511.65625 658.839844 511.648438 L 662.804688 511.515625 C 663.066406 511.507812 663.265625 511.703125 663.273438 511.953125 C 663.28125 512.207031 663.085938 512.414062 662.835938 512.421875 L 658.871094 512.554688 C 658.867188 512.554688 658.859375 512.554688 658.855469 512.554688 " fill-opacity="1" fill-rule="nonzero"/><path fill="#fefefe" d="M 679.023438 497.5 L 679.65625 506.640625 L 684.746094 506.640625 L 684.984375 497.5 L 679.023438 497.5 " fill-opacity="1" fill-rule="nonzero"/><path fill="#000000" d="M 680.082031 506.1875 L 684.304688 506.1875 L 684.519531 497.953125 L 679.511719 497.953125 Z M 684.746094 507.09375 L 679.65625 507.09375 C 679.421875 507.09375 679.222656 506.910156 679.207031 506.671875 L 678.574219 497.53125 C 678.5625 497.40625 678.605469 497.285156 678.691406 497.191406 C 678.777344 497.097656 678.898438 497.046875 679.023438 497.046875 L 684.984375 497.046875 C 685.105469 497.046875 685.222656 497.097656 685.308594 497.183594 C 685.394531 497.269531 685.441406 497.390625 685.4375 497.511719 L 685.199219 506.652344 C 685.195312 506.898438 684.992188 507.09375 684.746094 507.09375 " fill-opacity="1" fill-rule="nonzero"/><path fill="#142d49" d="M 678.328125 511.800781 C 678.316406 512.667969 678.90625 513.425781 679.746094 513.621094 C 682.671875 514.300781 689.265625 515.820312 691.144531 516.101562 C 693.585938 516.464844 696.585938 515.714844 697.871094 514.285156 C 699.160156 512.859375 694.984375 509.445312 693.003906 508.203125 C 690.058594 506.359375 687.230469 502.714844 686.042969 502.550781 C 684.859375 502.386719 682.644531 505.832031 682.644531 505.832031 L 679.023438 504.308594 C 679.023438 504.308594 678.394531 507.414062 678.328125 511.800781 " fill-opacity="1" fill-rule="nonzero"/><path fill="#000000" d="M 678.78125 511.808594 C 678.773438 512.457031 679.222656 513.03125 679.847656 513.179688 C 682.640625 513.828125 689.335938 515.375 691.210938 515.652344 C 693.554688 516.003906 696.390625 515.253906 697.535156 513.984375 C 697.609375 513.902344 697.6875 513.777344 697.652344 513.523438 C 697.46875 512.203125 694.644531 509.769531 692.761719 508.589844 C 691.257812 507.644531 689.824219 506.285156 688.5625 505.085938 C 687.515625 504.089844 686.433594 503.0625 685.980469 503 C 685.445312 502.925781 684 504.5625 683.023438 506.078125 C 682.90625 506.261719 682.671875 506.335938 682.46875 506.25 L 679.371094 504.949219 C 679.191406 506.019531 678.828125 508.570312 678.78125 511.808594 Z M 692.410156 516.644531 C 691.960938 516.644531 691.511719 516.613281 691.078125 516.550781 C 689.171875 516.265625 682.445312 514.714844 679.644531 514.0625 C 678.601562 513.820312 677.859375 512.867188 677.875 511.792969 C 677.941406 507.417969 678.554688 504.347656 678.582031 504.21875 C 678.609375 504.085938 678.691406 503.972656 678.8125 503.910156 C 678.933594 503.847656 679.074219 503.839844 679.199219 503.890625 L 682.472656 505.269531 C 683.203125 504.183594 684.875 501.933594 686.105469 502.101562 C 686.8125 502.199219 687.691406 503.007812 689.183594 504.425781 C 690.417969 505.597656 691.8125 506.921875 693.242188 507.820312 C 694.53125 508.625 698.269531 511.382812 698.550781 513.394531 C 698.613281 513.859375 698.496094 514.273438 698.207031 514.589844 C 697.082031 515.839844 694.707031 516.644531 692.410156 516.644531 " fill-opacity="1" fill-rule="nonzero"/><path fill="#000000" d="M 692.371094 514.960938 C 687.015625 514.960938 679.890625 512.078125 679.488281 511.914062 C 679.253906 511.820312 679.144531 511.554688 679.238281 511.324219 C 679.332031 511.089844 679.597656 510.980469 679.828125 511.074219 C 679.957031 511.128906 692.722656 516.292969 696.417969 512.953125 C 696.601562 512.785156 696.890625 512.796875 697.058594 512.984375 C 697.226562 513.171875 697.210938 513.457031 697.023438 513.625 C 695.949219 514.597656 694.269531 514.960938 692.371094 514.960938 " fill-opacity="1" fill-rule="nonzero"/><path fill="#000000" d="M 686.730469 509.433594 C 686.605469 509.433594 686.480469 509.382812 686.390625 509.28125 C 686.226562 509.097656 686.238281 508.808594 686.425781 508.640625 L 689.015625 506.304688 C 689.199219 506.136719 689.484375 506.152344 689.65625 506.335938 C 689.820312 506.523438 689.804688 506.808594 689.621094 506.976562 L 687.03125 509.316406 C 686.945312 509.394531 686.835938 509.433594 686.730469 509.433594 " fill-opacity="1" fill-rule="nonzero"/><path fill="#000000" d="M 657.769531 437.914062 C 657.769531 437.914062 656.191406 466.488281 655.367188 476.351562 C 654.542969 486.214844 657.296875 502.070312 657.296875 502.070312 L 665.152344 501.65625 C 665.152344 501.65625 665.691406 482.378906 666.277344 477.023438 C 666.277344 477.023438 669.59375 469.769531 670.578125 463.292969 C 671.5625 456.824219 674.910156 446.597656 674.910156 446.597656 C 674.910156 446.597656 677.632812 497.628906 677.894531 501.636719 C 677.894531 501.636719 684.054688 501.910156 686.261719 500.519531 C 686.261719 500.519531 690.175781 481.914062 689.613281 471.789062 C 689.050781 461.664062 689.667969 436.511719 689.667969 436.511719 L 657.769531 437.914062 " fill-opacity="1" fill-rule="nonzero"/><path fill="#fefefe" d="M 664.828125 477.476562 L 662.425781 477.476562 C 662.175781 477.476562 661.972656 477.273438 661.972656 477.023438 C 661.972656 476.773438 662.175781 476.570312 662.425781 476.570312 L 664.828125 476.570312 C 665.078125 476.570312 665.28125 476.773438 665.28125 477.023438 C 665.28125 477.273438 665.078125 477.476562 664.828125 477.476562 " fill-opacity="1" fill-rule="nonzero"/><path fill="#fefefe" d="M 681.933594 492.316406 C 681.933594 492.316406 681.929688 492.316406 681.925781 492.316406 C 681.675781 492.3125 681.476562 492.105469 681.480469 491.855469 C 681.570312 487.082031 686.769531 478.578125 686.988281 478.21875 C 687.121094 478.003906 687.402344 477.9375 687.613281 478.070312 C 687.828125 478.199219 687.894531 478.480469 687.761719 478.691406 C 687.707031 478.777344 682.46875 487.347656 682.386719 491.875 C 682.382812 492.121094 682.179688 492.316406 681.933594 492.316406 " fill-opacity="1" fill-rule="nonzero"/><path fill="#fefefe" d="M 692.15625 392.214844 C 692.726562 392.167969 695.535156 397.925781 704.320312 397.683594 C 713.105469 397.445312 720.152344 387.601562 720.152344 387.601562 C 720.152344 387.601562 723.1875 382.476562 725.488281 380.625 C 727.792969 378.773438 728.152344 378.53125 728.152344 378.53125 C 728.152344 378.53125 728.875 379.492188 728.152344 380.625 C 727.433594 381.757812 725.4375 383.878906 725.4375 383.878906 C 725.4375 383.878906 727.632812 385.085938 726.644531 387.601562 C 725.503906 390.492188 722.296875 390.257812 722.296875 390.257812 C 722.296875 390.257812 715.78125 419.132812 688.863281 405.414062 L 692.15625 392.214844 " fill-opacity="1" fill-rule="nonzero"/><path fill="#000000" d="M 689.390625 405.171875 C 697.164062 409.058594 703.933594 409.695312 709.515625 407.074219 C 718.941406 402.644531 721.824219 390.28125 721.855469 390.15625 C 721.902344 389.941406 722.101562 389.789062 722.328125 389.804688 C 722.445312 389.816406 725.222656 389.972656 726.222656 387.433594 C 727.058594 385.316406 725.296875 384.316406 725.21875 384.277344 C 725.097656 384.210938 725.011719 384.089844 724.992188 383.949219 C 724.96875 383.8125 725.011719 383.671875 725.109375 383.566406 C 725.128906 383.546875 727.082031 381.464844 727.769531 380.382812 C 728.058594 379.929688 728.050781 379.519531 727.976562 379.226562 C 727.609375 379.515625 726.945312 380.039062 725.773438 380.980469 C 723.5625 382.757812 720.574219 387.78125 720.542969 387.832031 C 720.535156 387.84375 720.53125 387.855469 720.519531 387.863281 C 720.230469 388.273438 713.238281 397.894531 704.332031 398.136719 C 697.15625 398.332031 693.769531 394.550781 692.492188 393.128906 C 692.46875 393.101562 692.441406 393.070312 692.414062 393.042969 Z M 702.214844 409.566406 C 698.089844 409.566406 693.558594 408.3125 688.65625 405.816406 C 688.46875 405.722656 688.375 405.507812 688.421875 405.300781 L 691.714844 392.105469 C 691.765625 391.914062 691.925781 391.777344 692.121094 391.761719 C 692.460938 391.734375 692.683594 391.980469 693.167969 392.523438 C 694.480469 393.988281 697.539062 397.417969 704.308594 397.230469 C 712.617188 397.003906 719.460938 387.777344 719.773438 387.351562 C 720.007812 386.960938 722.914062 382.117188 725.207031 380.273438 C 727.496094 378.429688 727.882812 378.164062 727.898438 378.152344 C 728.097656 378.019531 728.371094 378.0625 728.515625 378.257812 C 728.550781 378.304688 729.417969 379.488281 728.535156 380.871094 C 727.980469 381.742188 726.738281 383.132812 726.125 383.804688 C 726.945312 384.488281 727.816406 385.859375 727.066406 387.765625 C 726.066406 390.300781 723.605469 390.667969 722.652344 390.710938 C 722.105469 392.84375 718.925781 403.652344 709.898438 407.894531 C 707.53125 409.007812 704.960938 409.566406 702.214844 409.566406 " fill-opacity="1" fill-rule="nonzero"/><path fill="#142d49" d="M 648.617188 405.414062 C 648.617188 405.414062 651.253906 388.375 660.566406 384.183594 C 669.878906 379.992188 682.480469 380.574219 685.957031 382.667969 C 689.429688 384.761719 698.484375 394.226562 698.484375 394.226562 L 690.484375 405.414062 C 690.484375 405.414062 692.3125 435.527344 690.867188 443.476562 C 690.867188 443.476562 681.964844 444.515625 678.1875 443.027344 C 674.410156 441.539062 661.996094 439.453125 656.0625 442.183594 L 657.140625 404.054688 L 648.617188 405.414062 " fill-opacity="1" fill-rule="nonzero"/><path fill="#000000" d="M 664.125 440.402344 C 669.792969 440.402344 675.902344 441.636719 678.355469 442.605469 C 681.574219 443.875 688.828125 443.230469 690.476562 443.0625 C 691.792969 434.777344 690.050781 405.738281 690.03125 405.441406 C 690.023438 405.335938 690.054688 405.234375 690.117188 405.148438 L 697.898438 394.269531 C 696.390625 392.707031 688.777344 384.898438 685.722656 383.054688 C 682.484375 381.105469 670.011719 380.429688 660.753906 384.597656 C 652.761719 388.195312 649.757812 401.792969 649.171875 404.863281 L 657.070312 403.609375 C 657.203125 403.585938 657.335938 403.625 657.4375 403.714844 C 657.539062 403.804688 657.597656 403.933594 657.59375 404.070312 L 656.535156 441.496094 C 658.625 440.703125 661.320312 440.402344 664.125 440.402344 Z M 684.59375 444.285156 C 682.203125 444.285156 679.667969 444.097656 678.023438 443.449219 C 674.136719 441.914062 661.878906 440.003906 656.25 442.59375 C 656.109375 442.660156 655.941406 442.648438 655.8125 442.558594 C 655.679688 442.472656 655.605469 442.324219 655.609375 442.167969 L 656.671875 404.589844 L 648.6875 405.859375 C 648.542969 405.882812 648.398438 405.835938 648.296875 405.734375 C 648.195312 405.632812 648.144531 405.484375 648.167969 405.34375 C 648.277344 404.636719 650.949219 388.011719 660.378906 383.769531 C 669.617188 379.613281 682.40625 380 686.1875 382.277344 C 689.675781 384.378906 698.441406 393.523438 698.8125 393.910156 C 698.964844 394.070312 698.980469 394.3125 698.855469 394.488281 L 690.945312 405.546875 C 691.101562 408.175781 692.710938 435.859375 691.3125 443.558594 C 691.277344 443.753906 691.117188 443.90625 690.917969 443.925781 C 690.710938 443.949219 687.78125 444.285156 684.59375 444.285156 " fill-opacity="1" fill-rule="nonzero"/><path fill="#000000" d="M 664.242188 434.777344 C 664.027344 434.777344 663.835938 434.625 663.796875 434.402344 C 663.753906 434.15625 663.917969 433.921875 664.164062 433.878906 C 678.21875 431.390625 682.289062 421.6875 682.332031 421.589844 C 682.425781 421.359375 682.6875 421.246094 682.921875 421.339844 C 683.152344 421.433594 683.265625 421.699219 683.167969 421.929688 C 683.128906 422.035156 678.863281 432.199219 664.320312 434.769531 C 664.296875 434.777344 664.269531 434.777344 664.242188 434.777344 " fill-opacity="1" fill-rule="nonzero"/><path fill="#000000" d="M 689.808594 417.320312 L 671.683594 417.320312 L 677.363281 397.050781 L 695.488281 397.050781 L 689.808594 417.320312 " fill-opacity="1" fill-rule="nonzero"/><path fill="#fefefe" d="M 650.214844 405.476562 L 659.386719 401.371094 C 659.386719 401.371094 658.09375 416.933594 676.652344 409.746094 C 676.652344 409.746094 675.96875 407.75 676.066406 405.414062 C 676.160156 403.078125 677.558594 405.335938 677.753906 407.234375 C 677.949219 409.132812 682.304688 408.363281 684.921875 407.617188 C 687.542969 406.867188 690.980469 407.355469 684.921875 410.703125 C 678.867188 414.046875 677.542969 412.554688 677.542969 412.554688 C 677.542969 412.554688 669.808594 423.386719 660.1875 421.085938 C 648.355469 418.253906 650.214844 405.476562 650.214844 405.476562 " fill-opacity="1" fill-rule="nonzero"/><path fill="#000000" d="M 650.632812 405.785156 C 650.554688 406.585938 650.382812 409.257812 651.207031 412.125 C 652.507812 416.648438 655.566406 419.515625 660.292969 420.644531 C 661.171875 420.855469 662.035156 420.949219 662.878906 420.949219 C 670.890625 420.953125 677.105469 412.386719 677.171875 412.289062 C 677.253906 412.179688 677.378906 412.109375 677.519531 412.101562 C 677.652344 412.09375 677.789062 412.148438 677.878906 412.253906 C 677.882812 412.253906 679.242188 413.320312 684.703125 410.304688 C 687.816406 408.585938 687.84375 407.921875 687.84375 407.914062 C 687.695312 407.742188 686.511719 407.632812 685.046875 408.050781 C 683.796875 408.410156 679.59375 409.492188 677.976562 408.394531 C 677.582031 408.125 677.351562 407.742188 677.300781 407.28125 C 677.207031 406.371094 676.828125 405.464844 676.550781 405.058594 C 676.535156 405.152344 676.523438 405.273438 676.519531 405.433594 C 676.425781 407.648438 677.074219 409.582031 677.082031 409.601562 C 677.160156 409.832031 677.042969 410.082031 676.816406 410.171875 C 670.402344 412.65625 665.578125 412.738281 662.480469 410.417969 C 659.277344 408.015625 658.917969 403.796875 658.910156 402.082031 Z M 662.9375 421.863281 C 662.011719 421.863281 661.058594 421.761719 660.082031 421.527344 C 647.984375 418.632812 649.746094 405.542969 649.765625 405.414062 C 649.789062 405.257812 649.886719 405.128906 650.03125 405.066406 L 659.203125 400.957031 C 659.347656 400.890625 659.519531 400.910156 659.648438 401 C 659.777344 401.09375 659.851562 401.25 659.839844 401.410156 C 659.832031 401.464844 659.425781 407.003906 663.027344 409.695312 C 665.796875 411.765625 670.195312 411.691406 676.097656 409.476562 C 675.898438 408.75 675.539062 407.175781 675.613281 405.394531 C 675.628906 405.046875 675.671875 403.988281 676.421875 403.964844 C 677.375 403.929688 678.085938 406.046875 678.203125 407.1875 C 678.222656 407.382812 678.308594 407.523438 678.484375 407.644531 C 679.445312 408.292969 682.347656 407.878906 684.800781 407.179688 C 685.949219 406.847656 688.242188 406.511719 688.683594 407.585938 C 689.046875 408.460938 687.953125 409.546875 685.144531 411.097656 C 680.511719 413.65625 678.476562 413.503906 677.65625 413.15625 C 676.371094 414.832031 670.523438 421.863281 662.9375 421.863281 " fill-opacity="1" fill-rule="nonzero"/><path fill="#000000" d="M 674.699219 376.417969 C 673.90625 377.144531 672.355469 378.03125 671.144531 377.421875 C 670.242188 376.964844 669.738281 375.785156 669.769531 374.433594 C 669.351562 374.46875 668.800781 374.441406 668.410156 374.09375 C 667.808594 373.5625 667.921875 372.582031 667.945312 371.9375 C 668.054688 368.964844 666.328125 368.507812 666.753906 366.492188 C 667.082031 364.90625 668.328125 363.960938 668.558594 363.78125 C 669.734375 362.890625 670.53125 363.179688 672.503906 362.660156 C 675.828125 361.789062 675.933594 360.355469 678.121094 360.347656 C 678.246094 360.347656 681.226562 360.382812 682.238281 362.441406 C 683.058594 364.117188 682.097656 366.15625 681.105469 367.226562 C 679.820312 368.609375 678.898438 367.925781 677.605469 369.089844 C 675.339844 371.128906 677.050781 374.261719 674.699219 376.417969 " fill-opacity="1" fill-rule="nonzero"/><path fill="#fefefe" d="M 681.328125 371.113281 L 681.199219 371 C 680.539062 370.433594 679.855469 369.773438 679.679688 368.925781 C 678.9375 365.304688 675.628906 363.992188 675.476562 367.3125 C 675.4375 368.152344 672.378906 368.109375 672.742188 368.988281 C 673.6875 371.28125 673.707031 370.667969 672.375 371.511719 C 672.222656 371.515625 672.070312 371.550781 671.929688 371.617188 C 671.246094 371.9375 671.003906 372.867188 671.390625 373.695312 C 671.621094 374.199219 672.035156 374.546875 672.476562 374.671875 L 672.476562 378.296875 C 672.476562 379.65625 671.65625 380.878906 670.398438 381.394531 L 669.175781 381.894531 C 669.175781 381.894531 674.878906 385.621094 680.664062 381.53125 L 679.890625 381.183594 C 678.53125 380.570312 677.636719 379.238281 677.589844 377.746094 L 677.585938 377.039062 C 677.972656 377.070312 678.351562 377.046875 678.699219 376.945312 C 680.316406 376.472656 680.855469 374.605469 680.578125 372.285156 L 681.238281 371.929688 C 681.546875 371.765625 681.59375 371.34375 681.328125 371.113281 " fill-opacity="1" fill-rule="nonzero"/><path fill="#000000" d="M 670.230469 381.953125 C 671.851562 382.730469 675.6875 384.035156 679.722656 381.601562 L 679.707031 381.597656 C 678.199219 380.917969 677.191406 379.414062 677.140625 377.761719 L 677.132812 377.042969 C 677.128906 376.914062 677.183594 376.792969 677.277344 376.703125 C 677.371094 376.617188 677.496094 376.574219 677.625 376.585938 C 677.972656 376.617188 678.292969 376.589844 678.574219 376.507812 C 680.363281 375.988281 680.257812 373.417969 680.128906 372.339844 C 680.109375 372.152344 680.199219 371.972656 680.363281 371.882812 L 681.023438 371.53125 C 681.03125 371.527344 681.046875 371.519531 681.046875 371.496094 C 681.050781 371.472656 681.035156 371.460938 681.03125 371.457031 L 680.902344 371.34375 C 680.203125 370.742188 679.441406 370.015625 679.238281 369.015625 C 678.800781 366.890625 677.488281 365.800781 676.738281 365.859375 C 676.066406 365.910156 675.949219 366.910156 675.929688 367.335938 C 675.894531 368.0625 675.019531 368.308594 674.171875 368.546875 C 673.863281 368.632812 673.371094 368.769531 673.191406 368.890625 C 673.3125 369.1875 673.421875 369.433594 673.507812 369.636719 C 673.960938 370.675781 674.128906 371.0625 673.171875 371.574219 C 673.023438 371.65625 672.839844 371.753906 672.617188 371.894531 C 672.546875 371.9375 672.472656 371.960938 672.390625 371.964844 C 672.292969 371.96875 672.203125 371.988281 672.121094 372.027344 C 671.664062 372.242188 671.519531 372.902344 671.800781 373.503906 C 671.96875 373.867188 672.265625 374.140625 672.601562 374.234375 C 672.792969 374.289062 672.929688 374.46875 672.929688 374.671875 L 672.929688 378.296875 C 672.929688 379.847656 672.003906 381.226562 670.570312 381.8125 Z M 674.816406 383.886719 C 671.457031 383.886719 668.96875 382.300781 668.929688 382.273438 C 668.789062 382.179688 668.710938 382.019531 668.726562 381.851562 C 668.742188 381.683594 668.847656 381.539062 669.003906 381.472656 L 670.226562 380.972656 C 671.316406 380.527344 672.023438 379.476562 672.023438 378.296875 L 672.023438 374.980469 C 671.578125 374.761719 671.207031 374.378906 670.976562 373.886719 C 670.488281 372.835938 670.828125 371.632812 671.738281 371.207031 C 671.890625 371.136719 672.054688 371.089844 672.226562 371.066406 C 672.4375 370.941406 672.613281 370.847656 672.746094 370.773438 C 672.816406 370.734375 672.894531 370.695312 672.949219 370.664062 C 672.90625 370.527344 672.796875 370.269531 672.679688 370 C 672.582031 369.773438 672.460938 369.496094 672.324219 369.160156 C 672.234375 368.945312 672.238281 368.722656 672.335938 368.519531 C 672.5625 368.054688 673.195312 367.878906 673.929688 367.671875 C 674.269531 367.578125 674.890625 367.402344 675.023438 367.257812 C 675.128906 365.234375 676.308594 364.980469 676.667969 364.953125 C 677.9375 364.855469 679.605469 366.308594 680.125 368.832031 C 680.273438 369.554688 680.910156 370.152344 681.492188 370.65625 L 681.625 370.769531 C 681.859375 370.976562 681.980469 371.28125 681.949219 371.59375 C 681.914062 371.90625 681.730469 372.179688 681.453125 372.328125 L 681.0625 372.539062 C 681.296875 375.140625 680.488281 376.894531 678.824219 377.378906 C 678.578125 377.453125 678.316406 377.492188 678.042969 377.503906 L 678.042969 377.742188 C 678.085938 379.042969 678.882812 380.234375 680.078125 380.769531 L 680.847656 381.113281 C 680.996094 381.183594 681.097656 381.324219 681.113281 381.484375 C 681.128906 381.648438 681.058594 381.804688 680.925781 381.898438 C 678.800781 383.402344 676.675781 383.886719 674.816406 383.886719 " fill-opacity="1" fill-rule="nonzero"/><path fill="#000000" d="M 677.585938 377.492188 C 677.5625 377.492188 677.539062 377.488281 677.515625 377.484375 C 675.082031 377.113281 673.984375 375.242188 673.9375 375.164062 C 673.8125 374.945312 673.886719 374.667969 674.105469 374.542969 C 674.320312 374.417969 674.597656 374.492188 674.722656 374.710938 C 674.765625 374.78125 675.667969 376.285156 677.652344 376.589844 C 677.902344 376.625 678.070312 376.859375 678.03125 377.105469 C 678 377.328125 677.804688 377.492188 677.585938 377.492188 " fill-opacity="1" fill-rule="nonzero"/><path fill="#000000" d="M 602.078125 419.917969 C 601.492188 421.914062 600.578125 424.675781 601.589844 426 C 603.429688 428.40625 604.957031 428.023438 607.222656 427.191406 C 611.765625 425.535156 619.007812 422.917969 621.121094 424.375 L 621.214844 419.917969 L 602.078125 419.917969 " fill-opacity="1" fill-rule="nonzero"/><path fill="#fefefe" d="M 605.53125 499.542969 L 604.046875 509.964844 L 600.839844 509.964844 L 600.660156 499.714844 L 605.53125 499.542969 " fill-opacity="1" fill-rule="nonzero"/><path fill="#000000" d="M 601.285156 509.511719 L 603.65625 509.511719 L 605.003906 500.015625 L 601.121094 500.152344 Z M 604.046875 510.417969 L 600.839844 510.417969 C 600.59375 510.417969 600.390625 510.21875 600.386719 509.972656 L 600.207031 499.722656 C 600.203125 499.476562 600.398438 499.269531 600.644531 499.261719 L 605.515625 499.089844 C 605.644531 499.082031 605.777344 499.140625 605.867188 499.238281 C 605.957031 499.339844 605.996094 499.472656 605.980469 499.605469 L 604.496094 510.027344 C 604.464844 510.25 604.273438 510.417969 604.046875 510.417969 " fill-opacity="1" fill-rule="nonzero"/><path fill="#fefefe" d="M 604.175781 519.925781 C 602.640625 520.089844 600.128906 520.199219 597.199219 519.695312 C 596.242188 519.527344 595.632812 518.570312 595.894531 517.632812 C 596.589844 515.164062 597.710938 510.316406 599.507812 507.882812 C 599.65625 507.683594 599.960938 507.714844 600.074219 507.9375 L 600.640625 509.082031 L 601.265625 507.761719 C 601.363281 507.601562 601.527344 507.496094 601.710938 507.480469 L 603.226562 507.503906 C 603.527344 507.476562 603.800781 507.683594 603.855469 507.984375 L 604.046875 509.082031 L 604.75 508.191406 C 604.941406 507.945312 605.335938 508.074219 605.34375 508.386719 L 605.625 518.132812 C 605.714844 519.027344 605.066406 519.832031 604.175781 519.925781 " fill-opacity="1" fill-rule="nonzero"/><path fill="#000000" d="M 599.753906 508.316406 C 598.320312 510.382812 597.316406 514.117188 596.644531 516.609375 C 596.53125 517.027344 596.425781 517.414062 596.332031 517.753906 C 596.242188 518.082031 596.289062 518.417969 596.472656 518.707031 C 596.652344 518.996094 596.941406 519.1875 597.277344 519.246094 C 600.125 519.738281 602.578125 519.640625 604.128906 519.476562 C 604.769531 519.40625 605.238281 518.824219 605.175781 518.179688 C 605.175781 518.167969 605.171875 518.160156 605.171875 518.148438 L 604.902344 508.730469 L 604.402344 509.363281 C 604.292969 509.503906 604.109375 509.566406 603.9375 509.519531 C 603.765625 509.476562 603.632812 509.335938 603.601562 509.160156 L 603.410156 508.0625 C 603.398438 507.996094 603.335938 507.949219 603.269531 507.953125 C 603.253906 507.957031 603.234375 507.957031 603.21875 507.957031 L 601.738281 507.933594 C 601.707031 507.941406 601.683594 507.957031 601.664062 507.980469 L 601.050781 509.277344 C 600.976562 509.433594 600.816406 509.535156 600.644531 509.535156 C 600.457031 509.539062 600.3125 509.4375 600.234375 509.28125 Z M 601.554688 520.515625 C 600.261719 520.515625 598.757812 520.421875 597.121094 520.140625 C 596.539062 520.039062 596.019531 519.695312 595.703125 519.191406 C 595.390625 518.691406 595.300781 518.078125 595.460938 517.507812 C 595.554688 517.171875 595.65625 516.789062 595.769531 516.375 C 596.476562 513.75 597.542969 509.78125 599.144531 507.613281 C 599.304688 507.390625 599.566406 507.273438 599.839844 507.300781 C 600.117188 507.324219 600.355469 507.488281 600.476562 507.734375 L 600.632812 508.042969 L 600.859375 507.566406 C 600.863281 507.550781 600.871094 507.539062 600.878906 507.527344 C 601.046875 507.246094 601.34375 507.058594 601.671875 507.027344 C 601.6875 507.027344 601.703125 507.027344 601.71875 507.027344 L 603.214844 507.050781 C 603.730469 507.015625 604.210938 507.386719 604.300781 507.90625 L 604.320312 508.003906 L 604.394531 507.910156 C 604.601562 507.648438 604.941406 507.542969 605.257812 507.648438 C 605.574219 507.753906 605.789062 508.039062 605.796875 508.375 L 606.078125 518.105469 C 606.179688 519.238281 605.351562 520.257812 604.222656 520.378906 C 603.503906 520.457031 602.601562 520.515625 601.554688 520.515625 " fill-opacity="1" fill-rule="nonzero"/><path fill="#000000" d="M 600.53125 518.738281 C 599.382812 518.738281 598.101562 518.628906 596.832031 518.292969 C 596.589844 518.230469 596.445312 517.980469 596.507812 517.738281 C 596.570312 517.496094 596.820312 517.351562 597.058594 517.414062 C 600.570312 518.339844 604.304688 517.421875 604.339844 517.414062 C 604.582031 517.351562 604.828125 517.5 604.890625 517.742188 C 604.949219 517.988281 604.800781 518.234375 604.558594 518.292969 C 604.453125 518.320312 602.75 518.738281 600.53125 518.738281 " fill-opacity="1" fill-rule="nonzero"/><path fill="#000000" d="M 602.675781 514.664062 L 599.234375 514.664062 C 598.984375 514.664062 598.78125 514.460938 598.78125 514.210938 C 598.78125 513.960938 598.984375 513.757812 599.234375 513.757812 L 602.675781 513.757812 C 602.925781 513.757812 603.128906 513.960938 603.128906 514.210938 C 603.128906 514.460938 602.925781 514.664062 602.675781 514.664062 " fill-opacity="1" fill-rule="nonzero"/><path fill="#fefefe" d="M 632.753906 500.472656 L 634.089844 512.621094 L 639.191406 513.6875 L 638.882812 499.445312 L 632.753906 500.472656 " fill-opacity="1" fill-rule="nonzero"/><path fill="#000000" d="M 634.503906 512.242188 L 638.726562 513.128906 L 638.441406 499.980469 L 633.253906 500.847656 Z M 639.191406 514.140625 C 639.160156 514.140625 639.128906 514.140625 639.097656 514.132812 L 633.996094 513.0625 C 633.804688 513.023438 633.660156 512.863281 633.640625 512.667969 L 632.304688 500.523438 C 632.277344 500.285156 632.441406 500.066406 632.679688 500.027344 L 638.804688 499 C 638.9375 498.976562 639.070312 499.015625 639.167969 499.097656 C 639.269531 499.179688 639.332031 499.304688 639.332031 499.4375 L 639.644531 513.679688 C 639.648438 513.816406 639.585938 513.949219 639.480469 514.039062 C 639.398438 514.105469 639.296875 514.140625 639.191406 514.140625 " fill-opacity="1" fill-rule="nonzero"/><path fill="#fefefe" d="M 631.847656 517.769531 C 631.777344 516.160156 631.796875 513.289062 632.65625 511.3125 C 632.867188 510.824219 633.417969 510.582031 633.917969 510.761719 L 637.191406 511.929688 L 637.191406 511.054688 C 637.191406 510.773438 637.394531 510.542969 637.648438 510.527344 L 639.925781 510.398438 C 640.773438 510.347656 641.621094 510.523438 642.398438 510.90625 C 644.742188 512.058594 649.707031 514.777344 650.929688 517.628906 C 651.230469 518.332031 650.765625 519.125 650.007812 519.226562 C 647.890625 519.5 642.765625 519.878906 633.117188 519.085938 C 632.421875 519.03125 631.878906 518.464844 631.847656 517.769531 " fill-opacity="1" fill-rule="nonzero"/><path fill="#000000" d="M 633.582031 511.15625 C 633.367188 511.15625 633.160156 511.285156 633.070312 511.492188 C 632.242188 513.402344 632.234375 516.230469 632.300781 517.75 C 632.320312 518.214844 632.6875 518.597656 633.152344 518.632812 C 642.6875 519.414062 647.769531 519.058594 649.949219 518.773438 C 650.171875 518.746094 650.367188 518.617188 650.476562 518.417969 C 650.585938 518.230469 650.597656 518.003906 650.511719 517.804688 C 649.335938 515.0625 644.304688 512.351562 642.199219 511.3125 C 641.492188 510.964844 640.714844 510.808594 639.949219 510.851562 L 637.675781 510.980469 C 637.667969 510.984375 637.644531 511.007812 637.644531 511.054688 L 637.644531 511.929688 C 637.644531 512.078125 637.574219 512.214844 637.453125 512.300781 C 637.332031 512.382812 637.179688 512.40625 637.039062 512.355469 L 633.765625 511.1875 C 633.707031 511.167969 633.644531 511.15625 633.582031 511.15625 Z M 643.480469 520.015625 C 640.824219 520.015625 637.402344 519.894531 633.078125 519.539062 C 632.160156 519.464844 631.4375 518.710938 631.398438 517.789062 C 631.324219 516.195312 631.335938 513.207031 632.238281 511.132812 C 632.542969 510.425781 633.351562 510.078125 634.070312 510.335938 L 636.738281 511.285156 L 636.738281 511.054688 C 636.738281 510.535156 637.128906 510.101562 637.621094 510.074219 L 639.898438 509.945312 C 640.816406 509.890625 641.753906 510.082031 642.597656 510.5 C 645.328125 511.84375 650.097656 514.535156 651.347656 517.449219 C 651.542969 517.910156 651.515625 518.429688 651.265625 518.867188 C 651.011719 519.316406 650.574219 519.609375 650.066406 519.675781 C 648.84375 519.832031 646.734375 520.015625 643.480469 520.015625 " fill-opacity="1" fill-rule="nonzero"/><path fill="#000000" d="M 641.722656 518.269531 C 639.402344 518.269531 636.640625 518.152344 633.613281 517.800781 C 633.367188 517.773438 633.1875 517.546875 633.214844 517.296875 C 633.246094 517.050781 633.46875 516.871094 633.71875 516.902344 C 642.378906 517.90625 648.816406 516.957031 648.878906 516.945312 C 649.125 516.910156 649.355469 517.078125 649.394531 517.328125 C 649.433594 517.574219 649.261719 517.804688 649.015625 517.84375 C 648.972656 517.851562 646.144531 518.269531 641.722656 518.269531 " fill-opacity="1" fill-rule="nonzero"/><path fill="#000000" d="M 643.738281 515.128906 C 643.648438 515.128906 643.554688 515.101562 643.476562 515.046875 L 639.546875 512.214844 C 639.34375 512.070312 639.296875 511.785156 639.441406 511.582031 C 639.589844 511.378906 639.871094 511.332031 640.074219 511.480469 L 644.003906 514.308594 C 644.207031 514.457031 644.253906 514.738281 644.105469 514.941406 C 644.019531 515.066406 643.878906 515.128906 643.738281 515.128906 " fill-opacity="1" fill-rule="nonzero"/><path fill="#000000" d="M 634.347656 421.664062 C 634.347656 421.664062 641.453125 468.789062 640.136719 502.257812 C 640.105469 502.984375 639.515625 503.5625 638.789062 503.582031 L 633.128906 503.726562 C 632.445312 503.746094 631.851562 503.265625 631.730469 502.59375 C 630.382812 495.109375 622.839844 453.933594 618.886719 446.25 C 618.886719 446.25 607.691406 487.554688 606.597656 501.238281 C 606.542969 501.9375 605.988281 502.484375 605.289062 502.53125 C 603.957031 502.613281 601.816406 502.691406 600.257812 502.460938 C 599.617188 502.367188 599.128906 501.839844 599.070312 501.199219 C 598.023438 489.746094 597.765625 479.273438 597.714844 471.796875 C 597.550781 449.769531 599.652344 439.765625 600.804688 435.015625 C 601.863281 430.660156 603 427.117188 603.828125 424.722656 L 606.597656 416.8125 L 634.347656 421.664062 " fill-opacity="1" fill-rule="nonzero"/><path fill="#caddff" d="M 618.863281 448.246094 C 618.824219 448.246094 618.785156 448.242188 618.742188 448.230469 C 618.503906 448.164062 618.359375 447.917969 618.425781 447.675781 L 619.792969 442.636719 C 620.175781 441.082031 621.136719 440.027344 622.496094 439.679688 L 623.828125 439.335938 C 624.070312 439.273438 624.316406 439.421875 624.378906 439.664062 C 624.441406 439.90625 624.292969 440.152344 624.050781 440.214844 L 622.71875 440.558594 C 621.414062 440.890625 620.882812 441.996094 620.667969 442.863281 L 619.300781 447.914062 C 619.246094 448.113281 619.0625 448.246094 618.863281 448.246094 " fill-opacity="1" fill-rule="nonzero"/><path fill="#142d49" d="M 628.105469 377.179688 C 631.875 377.160156 635.320312 379.296875 636.96875 382.667969 C 638.878906 386.574219 641.578125 396.796875 641.679688 401.261719 C 641.867188 409.066406 635.039062 409.503906 634.835938 409.515625 C 634.832031 409.515625 634.832031 409.519531 634.832031 409.519531 C 634.851562 409.746094 635.648438 418.226562 635.714844 419.730469 C 635.828125 422.484375 630.730469 426.78125 624.871094 424.664062 C 619.042969 422.558594 603.121094 418.363281 601.503906 421.933594 C 601.503906 421.941406 601.496094 421.9375 601.496094 421.933594 L 608.175781 397.121094 C 608.175781 397.117188 608.175781 397.117188 608.171875 397.117188 L 602.6875 397.382812 C 602.6875 397.382812 602.6875 397.378906 602.6875 397.378906 L 598.222656 394.796875 C 598.21875 394.792969 598.21875 394.792969 598.21875 394.789062 L 599.351562 389.773438 C 601.496094 381.207031 607.246094 377.277344 614.660156 377.242188 L 628.105469 377.179688 " fill-opacity="1" fill-rule="nonzero"/><path fill="#fefefe" d="M 610.523438 396.320312 C 609.496094 396.128906 609.777344 394.941406 606.175781 394.726562 C 595.785156 394.105469 600.820312 388.820312 606.773438 389.828125 C 608.746094 390.164062 609.523438 391.441406 610.265625 391.765625 C 616.492188 394.484375 612.566406 396.699219 610.523438 396.320312 " fill-opacity="1" fill-rule="nonzero"/><path fill="#000000" d="M 605.277344 390.15625 C 603.25 390.15625 601.503906 390.871094 600.863281 391.707031 C 600.507812 392.171875 600.644531 392.46875 600.6875 392.566406 C 600.839844 392.898438 601.683594 394.003906 606.203125 394.273438 C 608.773438 394.425781 609.507812 395.066406 610.046875 395.535156 C 610.285156 395.742188 610.398438 395.835938 610.605469 395.875 C 611.507812 396.039062 612.9375 395.566406 613.152344 394.855469 C 613.378906 394.117188 612.230469 393.121094 610.085938 392.179688 C 609.785156 392.050781 609.519531 391.824219 609.207031 391.566406 C 608.632812 391.082031 607.914062 390.480469 606.699219 390.277344 C 606.21875 390.195312 605.738281 390.15625 605.277344 390.15625 Z M 611.03125 396.816406 C 610.828125 396.816406 610.628906 396.800781 610.441406 396.765625 C 609.980469 396.679688 609.710938 396.445312 609.453125 396.21875 C 609.011719 395.839844 608.410156 395.3125 606.148438 395.179688 C 602.609375 394.964844 600.433594 394.195312 599.863281 392.941406 C 599.601562 392.367188 599.699219 391.734375 600.144531 391.15625 C 601.101562 389.90625 603.777344 388.863281 606.851562 389.382812 C 608.308594 389.628906 609.164062 390.347656 609.789062 390.871094 C 610.046875 391.085938 610.265625 391.269531 610.445312 391.347656 C 613.894531 392.855469 614.292969 394.230469 614.019531 395.121094 C 613.695312 396.179688 612.277344 396.816406 611.03125 396.816406 " fill-opacity="1" fill-rule="nonzero"/><path fill="#fefefe" d="M 623.601562 378.640625 C 623.949219 378.34375 623.765625 377.773438 623.3125 377.71875 L 622.609375 377.636719 C 621.851562 377.542969 621.21875 377.039062 620.972656 376.34375 L 619.8125 367.761719 L 617.433594 368.613281 L 614.285156 367.054688 L 614.566406 376.222656 C 614.542969 377.023438 614.023438 377.730469 613.25 378.003906 L 612.332031 378.335938 C 611.847656 378.507812 611.824219 379.164062 612.292969 379.371094 C 614.167969 380.1875 621.785156 380.195312 623.601562 378.640625 " fill-opacity="1" fill-rule="nonzero"/><path fill="#000000" d="M 614.757812 367.796875 L 615.019531 376.210938 C 614.988281 377.230469 614.355469 378.089844 613.402344 378.433594 L 612.484375 378.761719 C 612.433594 378.78125 612.410156 378.8125 612.40625 378.859375 C 612.40625 378.925781 612.457031 378.949219 612.476562 378.957031 C 614.355469 379.777344 621.699219 379.675781 623.308594 378.296875 C 623.320312 378.285156 623.339844 378.269531 623.328125 378.230469 C 623.316406 378.195312 623.292969 378.175781 623.257812 378.171875 L 622.554688 378.085938 C 621.621094 377.972656 620.851562 377.363281 620.546875 376.492188 C 620.535156 376.464844 620.527344 376.433594 620.523438 376.402344 L 619.4375 368.375 L 617.585938 369.039062 C 617.46875 369.082031 617.34375 369.074219 617.230469 369.019531 Z M 616.882812 380.359375 C 614.824219 380.359375 612.929688 380.144531 612.113281 379.789062 C 611.726562 379.621094 611.488281 379.242188 611.5 378.828125 C 611.515625 378.410156 611.78125 378.050781 612.179688 377.90625 L 613.097656 377.578125 C 613.695312 377.363281 614.09375 376.828125 614.113281 376.210938 L 613.832031 367.066406 C 613.824219 366.910156 613.90625 366.757812 614.039062 366.671875 C 614.171875 366.585938 614.339844 366.578125 614.484375 366.648438 L 617.460938 368.121094 L 619.660156 367.335938 C 619.789062 367.289062 619.933594 367.300781 620.046875 367.375 C 620.164062 367.445312 620.242188 367.5625 620.261719 367.699219 L 621.414062 376.230469 C 621.617188 376.753906 622.089844 377.117188 622.664062 377.183594 L 623.367188 377.269531 C 623.753906 377.316406 624.082031 377.589844 624.195312 377.964844 C 624.308594 378.339844 624.191406 378.730469 623.898438 378.984375 C 622.753906 379.964844 619.667969 380.359375 616.882812 380.359375 " fill-opacity="1" fill-rule="nonzero"/><path fill="#fefefe" d="M 620.867188 360.9375 C 624.925781 362.433594 624.226562 365.0625 624.226562 365.0625 C 624.175781 365.785156 624.148438 367.105469 624.28125 367.589844 C 624.394531 367.984375 625.039062 368.726562 625.070312 368.949219 C 625.101562 369.167969 624.753906 369.621094 624.050781 369.78125 C 624.050781 369.78125 623.785156 373.292969 622.863281 373.867188 C 621.945312 374.441406 618.402344 373.339844 618.402344 373.339844 L 617.808594 373.097656 C 615.890625 372.328125 614.714844 370.726562 614.15625 368.742188 C 614.15625 368.742188 611.574219 357.511719 620.867188 360.9375 " fill-opacity="1" fill-rule="nonzero"/><path fill="#000000" d="M 618.554688 372.910156 C 620.160156 373.40625 622.167969 373.769531 622.625 373.480469 C 623.058594 373.210938 623.476562 371.332031 623.597656 369.746094 C 623.613281 369.546875 623.753906 369.382812 623.949219 369.335938 C 624.308594 369.253906 624.515625 369.082031 624.59375 368.984375 C 624.539062 368.890625 624.441406 368.75 624.371094 368.648438 C 624.152344 368.324219 623.925781 367.996094 623.847656 367.710938 C 623.640625 366.980469 623.773438 365.050781 623.777344 365.027344 C 623.777344 365 623.78125 364.972656 623.789062 364.945312 C 623.8125 364.855469 624.296875 362.683594 620.710938 361.363281 C 618.378906 360.503906 616.660156 360.535156 615.613281 361.460938 C 613.425781 363.386719 614.585938 368.589844 614.597656 368.644531 C 615.152344 370.613281 616.324219 372.015625 617.976562 372.679688 Z M 621.976562 374.484375 C 620.683594 374.484375 618.914062 373.972656 618.269531 373.769531 C 618.257812 373.765625 618.246094 373.761719 618.234375 373.757812 L 617.640625 373.519531 C 615.714844 372.746094 614.363281 371.140625 613.722656 368.867188 C 613.664062 368.609375 612.421875 363.066406 615.011719 360.78125 C 616.332031 359.617188 618.355469 359.527344 621.023438 360.511719 C 625.082031 362.007812 624.757812 364.691406 624.675781 365.117188 C 624.617188 365.980469 624.621094 367.117188 624.71875 367.464844 C 624.757812 367.605469 624.976562 367.921875 625.121094 368.132812 C 625.363281 368.492188 625.492188 368.6875 625.519531 368.882812 C 625.578125 369.304688 625.199219 369.851562 624.476562 370.125 C 624.371094 371.238281 624.035156 373.667969 623.105469 374.25 C 622.835938 374.417969 622.4375 374.484375 621.976562 374.484375 " fill-opacity="1" fill-rule="nonzero"/><path fill="#000000" d="M 619.53125 359.035156 C 620.597656 359.296875 621.640625 359.960938 622.191406 360.023438 C 623.082031 360.117188 623.722656 358.976562 624.84375 359.390625 C 625.832031 359.753906 626.386719 360.59375 626.527344 361.542969 C 626.550781 361.699219 626.558594 361.867188 626.542969 362.046875 C 626.332031 364.441406 624.835938 364.953125 624.226562 365.0625 C 624.226562 365.0625 620.707031 364.734375 620.019531 364.902344 C 619.375 365.058594 618.382812 366.058594 618.082031 367.480469 C 618.046875 367.667969 617.882812 367.800781 617.695312 367.8125 C 617.476562 367.832031 617.277344 367.679688 617.238281 367.460938 C 617.121094 366.777344 616.800781 365.410156 616.109375 365.371094 C 615.300781 365.324219 614.269531 366.925781 615.328125 367.925781 C 615.652344 368.234375 615.542969 368.796875 615.128906 368.964844 C 614.78125 369.105469 614.347656 369.113281 613.878906 368.734375 C 613.878906 368.734375 611.792969 365.074219 612.789062 361.984375 C 613.785156 358.894531 618.113281 358.6875 619.53125 359.035156 " fill-opacity="1" fill-rule="nonzero"/><path fill="#000000" d="M 625.195312 369.140625 C 625.074219 369.140625 624.953125 369.089844 624.863281 368.992188 C 624.695312 368.808594 624.703125 368.523438 624.886719 368.351562 C 625.042969 368.207031 625.226562 367.792969 625.257812 367.226562 C 625.292969 366.542969 625.085938 366.125 624.980469 366.042969 C 624.90625 366.09375 624.722656 366.328125 624.628906 366.8125 C 624.582031 367.058594 624.34375 367.21875 624.101562 367.171875 C 623.855469 367.125 623.691406 366.886719 623.738281 366.640625 C 623.921875 365.691406 624.421875 365.101562 625.027344 365.132812 C 625.253906 365.140625 625.679688 365.261719 625.953125 365.914062 C 626.113281 366.289062 626.1875 366.773438 626.160156 367.273438 C 626.121094 368.019531 625.878906 368.671875 625.503906 369.015625 C 625.417969 369.097656 625.308594 369.140625 625.195312 369.140625 " fill-opacity="1" fill-rule="nonzero"/><path fill="#000000" d="M 621.886719 367.195312 C 621.867188 367.558594 621.9375 367.914062 622.078125 368.164062 C 622.175781 368.347656 622.304688 368.460938 622.417969 368.464844 C 622.675781 368.472656 623.039062 368.011719 623.078125 367.257812 C 623.097656 366.894531 623.027344 366.539062 622.890625 366.285156 C 622.789062 366.105469 622.660156 365.992188 622.546875 365.988281 C 622.542969 365.988281 622.539062 365.988281 622.539062 365.988281 C 622.292969 365.988281 621.925781 366.449219 621.886719 367.195312 Z M 622.429688 369.371094 C 622.410156 369.371094 622.390625 369.371094 622.371094 369.371094 C 621.9375 369.347656 621.539062 369.070312 621.28125 368.601562 C 621.0625 368.199219 620.953125 367.683594 620.980469 367.148438 C 621.042969 365.945312 621.742188 365.039062 622.59375 365.082031 C 623.03125 365.101562 623.425781 365.382812 623.683594 365.847656 C 623.90625 366.253906 624.011719 366.769531 623.984375 367.300781 C 623.921875 368.480469 623.246094 369.371094 622.429688 369.371094 " fill-opacity="1" fill-rule="nonzero"/><path fill="#000000" d="M 621.558594 366.882812 C 621.546875 366.882812 621.53125 366.882812 621.519531 366.878906 L 617.648438 366.53125 C 617.398438 366.507812 617.214844 366.289062 617.238281 366.039062 C 617.261719 365.789062 617.476562 365.605469 617.730469 365.628906 L 621.601562 365.976562 C 621.847656 366 622.03125 366.21875 622.011719 366.46875 C 621.988281 366.703125 621.792969 366.882812 621.558594 366.882812 " fill-opacity="1" fill-rule="nonzero"/><path fill="#fefefe" d="M 615.390625 383.371094 C 615.390625 383.371094 616.898438 385.738281 618.253906 385.320312 C 618.96875 385.101562 619.664062 382.769531 619.949219 382.683594 C 620.859375 382.417969 622.589844 381.988281 623.65625 380.082031 C 624.648438 378.304688 624.433594 377.355469 624.175781 376.921875 C 624.058594 376.71875 624.058594 376.46875 624.191406 376.277344 C 624.378906 375.996094 624.566406 375.570312 624.371094 375.132812 C 624.304688 374.980469 624.3125 374.804688 624.378906 374.648438 C 624.628906 374.058594 625.097656 372.707031 624.1875 372.441406 C 623.941406 372.367188 623.675781 372.457031 623.527344 372.664062 C 623.238281 373.0625 622.636719 373.816406 621.890625 374.289062 C 620.839844 374.960938 620.207031 375.417969 619.679688 375.722656 C 619.226562 375.980469 618.988281 373.714844 617.898438 372.863281 C 616.929688 372.109375 616.601562 372.492188 616.503906 372.847656 C 616.410156 373.203125 617.007812 373.34375 617.347656 375.027344 C 617.746094 377.003906 617.328125 378.667969 617.207031 379.558594 C 617.066406 380.601562 615.390625 383.371094 615.390625 383.371094 " fill-opacity="1" fill-rule="nonzero"/><path fill="#000000" d="M 616.96875 372.882812 Z M 615.929688 383.355469 C 616.390625 383.992188 617.386719 385.113281 618.121094 384.886719 C 618.375 384.789062 618.84375 383.78125 619.042969 383.351562 C 619.367188 382.65625 619.511719 382.339844 619.820312 382.25 L 619.9375 382.214844 C 620.832031 381.957031 622.328125 381.523438 623.261719 379.863281 C 624.191406 378.195312 623.9375 377.410156 623.785156 377.148438 C 623.578125 376.796875 623.589844 376.355469 623.816406 376.019531 C 624 375.753906 624.046875 375.515625 623.957031 375.316406 C 623.84375 375.050781 623.84375 374.742188 623.960938 374.46875 C 624.238281 373.824219 624.34375 373.25 624.226562 373.003906 C 624.203125 372.953125 624.167969 372.90625 624.0625 372.875 C 624 372.855469 623.929688 372.878906 623.894531 372.929688 C 623.582031 373.363281 622.941406 374.160156 622.132812 374.671875 C 621.679688 374.964844 621.300781 375.214844 620.980469 375.429688 C 620.550781 375.710938 620.214844 375.9375 619.902344 376.117188 C 619.75 376.203125 619.574219 376.21875 619.414062 376.164062 C 619.058594 376.035156 618.902344 375.632812 618.660156 375.019531 C 618.429688 374.421875 618.109375 373.605469 617.617188 373.222656 C 617.160156 372.863281 616.980469 372.878906 616.96875 372.882812 C 616.96875 372.882812 616.96875 372.890625 616.960938 372.910156 C 616.980469 372.941406 617.007812 372.988281 617.035156 373.027344 C 617.234375 373.328125 617.566406 373.832031 617.792969 374.941406 C 618.144531 376.675781 617.894531 378.160156 617.730469 379.140625 C 617.703125 379.320312 617.675781 379.476562 617.65625 379.617188 C 617.527344 380.566406 616.367188 382.609375 615.929688 383.355469 Z M 617.921875 385.824219 C 616.460938 385.824219 615.164062 383.863281 615.007812 383.617188 C 614.914062 383.46875 614.914062 383.285156 615.003906 383.136719 C 615.457031 382.386719 616.652344 380.273438 616.757812 379.496094 C 616.78125 379.347656 616.808594 379.179688 616.839844 378.992188 C 616.992188 378.074219 617.222656 376.695312 616.902344 375.121094 C 616.714844 374.1875 616.453125 373.789062 616.28125 373.527344 C 616.136719 373.308594 615.976562 373.066406 616.066406 372.726562 C 616.164062 372.371094 616.382812 372.121094 616.683594 372.023438 C 617.09375 371.882812 617.582031 372.042969 618.175781 372.507812 C 618.859375 373.039062 619.234375 373.992188 619.503906 374.6875 C 619.566406 374.84375 619.640625 375.035156 619.707031 375.175781 C 619.929688 375.039062 620.179688 374.871094 620.476562 374.671875 C 620.804688 374.453125 621.1875 374.203125 621.648438 373.90625 C 622.328125 373.472656 622.886719 372.777344 623.160156 372.398438 C 623.421875 372.035156 623.886719 371.878906 624.316406 372.003906 C 624.652344 372.101562 624.902344 372.3125 625.042969 372.617188 C 625.347656 373.257812 625.074219 374.175781 624.792969 374.828125 C 624.773438 374.871094 624.773438 374.917969 624.789062 374.949219 C 625.003906 375.441406 624.921875 376 624.566406 376.53125 C 624.535156 376.574219 624.535156 376.636719 624.566406 376.691406 C 624.917969 377.289062 625.113281 378.402344 624.050781 380.304688 C 622.9375 382.292969 621.148438 382.808594 620.1875 383.085938 L 620.183594 383.089844 C 620.105469 383.21875 619.96875 383.511719 619.863281 383.734375 C 619.367188 384.804688 618.972656 385.574219 618.386719 385.753906 C 618.230469 385.800781 618.074219 385.824219 617.921875 385.824219 " fill-opacity="1" fill-rule="nonzero"/><path fill="#142d49" d="M 620.355469 384.417969 L 615.792969 381.507812 C 615.792969 381.507812 609.621094 391.496094 604.949219 394.886719 C 602.675781 396.535156 598.261719 394.597656 598.261719 394.597656 C 598.261719 394.597656 594.027344 410.898438 602.203125 413.226562 C 615.824219 417.109375 620.355469 384.417969 620.355469 384.417969 " fill-opacity="1" fill-rule="nonzero"/><path fill="#caddff" d="M 634.09375 410.164062 C 628.910156 410.164062 621.679688 406.171875 616.421875 402.253906 C 616.222656 402.105469 616.179688 401.820312 616.332031 401.617188 C 616.480469 401.417969 616.761719 401.375 616.964844 401.523438 C 622.171875 405.40625 630.011719 409.75 634.972656 409.214844 C 635.21875 409.183594 635.445312 409.367188 635.472656 409.613281 C 635.5 409.863281 635.320312 410.085938 635.070312 410.113281 C 634.753906 410.148438 634.425781 410.164062 634.09375 410.164062 " fill-opacity="1" fill-rule="nonzero"/><path fill="#caddff" d="M 627.191406 397.601562 C 624.257812 397.601562 618.960938 395.117188 618.710938 395 C 618.484375 394.894531 618.390625 394.625 618.496094 394.398438 C 618.601562 394.171875 618.871094 394.074219 619.097656 394.179688 C 620.878906 395.019531 625.917969 397.097656 627.816406 396.632812 C 631.582031 395.710938 630.703125 390.96875 630.664062 390.765625 C 630.617188 390.523438 630.777344 390.28125 631.023438 390.234375 C 631.265625 390.1875 631.503906 390.347656 631.554688 390.59375 C 631.941406 392.59375 631.707031 396.613281 628.03125 397.515625 C 627.785156 397.574219 627.5 397.601562 627.191406 397.601562 " fill-opacity="1" fill-rule="nonzero"/><path fill="#caddff" d="M 604.550781 395.8125 C 604.414062 395.8125 604.277344 395.75 604.1875 395.632812 C 604.039062 395.429688 604.078125 395.148438 604.277344 394.996094 C 609.152344 391.347656 615.222656 381.296875 615.28125 381.191406 C 615.410156 380.976562 615.691406 380.910156 615.902344 381.039062 C 616.117188 381.167969 616.1875 381.445312 616.058594 381.660156 C 615.808594 382.082031 609.839844 391.96875 604.824219 395.722656 C 604.742188 395.785156 604.644531 395.8125 604.550781 395.8125 " fill-opacity="1" fill-rule="nonzero"/><path fill="#caddff" d="M 604.160156 414.160156 C 603.976562 414.160156 603.792969 414.152344 603.605469 414.136719 C 603.355469 414.117188 603.171875 413.894531 603.191406 413.644531 C 603.210938 413.394531 603.433594 413.210938 603.683594 413.234375 C 613.671875 414.097656 619.226562 387.761719 619.851562 384.636719 L 618.121094 383.535156 C 617.910156 383.398438 617.851562 383.117188 617.984375 382.90625 C 618.117188 382.695312 618.398438 382.636719 618.609375 382.769531 L 620.597656 384.035156 C 620.753906 384.136719 620.835938 384.320312 620.800781 384.503906 C 620.574219 385.734375 615.15625 414.160156 604.160156 414.160156 " fill-opacity="1" fill-rule="nonzero"/><path fill="#000000" d="M 655.632812 362.566406 C 655.410156 362.238281 655.410156 361.820312 655.632812 361.492188 C 655.945312 361.042969 656.113281 360.554688 656.113281 360.050781 C 656.113281 357.695312 652.46875 355.785156 647.976562 355.785156 C 643.480469 355.785156 639.835938 357.695312 639.835938 360.050781 C 639.835938 360.554688 640.007812 361.042969 640.316406 361.492188 C 640.539062 361.820312 640.539062 362.238281 640.316406 362.566406 C 640.007812 363.015625 639.835938 363.503906 639.835938 364.011719 C 639.835938 365.128906 640.65625 366.144531 642 366.902344 C 641.96875 367.03125 641.953125 367.160156 641.953125 367.289062 C 641.953125 369.03125 644.648438 370.445312 647.976562 370.445312 C 651.300781 370.445312 653.996094 369.03125 653.996094 367.289062 C 653.996094 367.160156 653.980469 367.03125 653.949219 366.902344 C 655.292969 366.144531 656.113281 365.128906 656.113281 364.011719 C 656.113281 363.503906 655.945312 363.015625 655.632812 362.566406 " fill-opacity="1" fill-rule="nonzero"/><path fill="#000000" d="M 647.976562 356.242188 C 643.808594 356.242188 640.289062 357.984375 640.289062 360.050781 C 640.289062 360.453125 640.425781 360.851562 640.6875 361.234375 C 641.019531 361.71875 641.019531 362.339844 640.691406 362.824219 C 640.425781 363.207031 640.289062 363.609375 640.289062 364.011719 C 640.289062 364.917969 640.976562 365.800781 642.222656 366.507812 L 642.515625 366.675781 L 642.441406 367.007812 C 642.417969 367.105469 642.40625 367.199219 642.40625 367.289062 C 642.40625 368.753906 644.957031 369.992188 647.976562 369.992188 C 650.992188 369.992188 653.542969 368.753906 653.542969 367.289062 C 653.542969 367.199219 653.53125 367.105469 653.507812 367.007812 L 653.433594 366.675781 L 653.726562 366.507812 C 654.972656 365.800781 655.660156 364.917969 655.660156 364.011719 C 655.660156 363.609375 655.527344 363.207031 655.261719 362.824219 C 654.929688 362.339844 654.929688 361.71875 655.261719 361.234375 C 655.527344 360.851562 655.660156 360.453125 655.660156 360.050781 C 655.660156 357.984375 652.140625 356.242188 647.976562 356.242188 Z M 647.976562 370.898438 C 644.34375 370.898438 641.5 369.3125 641.5 367.289062 C 641.5 367.238281 641.5 367.1875 641.503906 367.136719 C 640.136719 366.28125 639.382812 365.179688 639.382812 364.011719 C 639.382812 363.421875 639.574219 362.847656 639.941406 362.308594 C 640.0625 362.136719 640.0625 361.921875 639.941406 361.75 C 639.574219 361.210938 639.382812 360.636719 639.382812 360.050781 C 639.382812 357.40625 643.15625 355.332031 647.976562 355.332031 C 652.792969 355.332031 656.566406 357.40625 656.566406 360.050781 C 656.566406 360.636719 656.378906 361.210938 656.007812 361.75 C 655.890625 361.921875 655.890625 362.136719 656.007812 362.308594 C 656.378906 362.847656 656.566406 363.421875 656.566406 364.011719 C 656.566406 365.179688 655.816406 366.28125 654.445312 367.136719 C 654.449219 367.1875 654.449219 367.238281 654.449219 367.289062 C 654.449219 369.3125 651.605469 370.898438 647.976562 370.898438 " fill-opacity="1" fill-rule="nonzero"/><path fill="#fefefe" d="M 670.0625 327.363281 C 670.0625 315.285156 660.023438 304.984375 647.964844 304.984375 C 635.925781 304.984375 625.996094 315.007812 625.917969 327.058594 C 625.878906 333.195312 628.832031 338.90625 632.863281 342.898438 C 635.773438 345.78125 637.890625 349.363281 638.921875 353.328125 L 638.972656 353.519531 C 639.972656 357.367188 643.441406 360.054688 647.410156 360.054688 L 649.039062 360.054688 C 653.011719 360.054688 656.480469 357.367188 657.480469 353.519531 L 657.507812 353.402344 C 658.53125 349.464844 660.566406 345.851562 663.472656 343.011719 C 667.539062 339.039062 670.0625 333.496094 670.0625 327.363281 " fill-opacity="1" fill-rule="nonzero"/><path fill="#000000" d="M 647.964844 305.4375 C 636.136719 305.4375 626.449219 315.136719 626.371094 327.0625 C 626.335938 332.59375 628.816406 338.25 633.183594 342.574219 C 636.191406 345.554688 638.328125 349.234375 639.359375 353.210938 L 639.410156 353.402344 C 640.359375 357.050781 643.648438 359.597656 647.410156 359.597656 L 649.039062 359.597656 C 652.804688 359.597656 656.09375 357.050781 657.042969 353.402344 L 657.070312 353.285156 C 658.132812 349.203125 660.234375 345.539062 663.15625 342.683594 C 667.316406 338.621094 669.609375 333.179688 669.609375 327.359375 C 669.609375 315.476562 659.699219 305.4375 647.964844 305.4375 Z M 649.039062 360.507812 L 647.410156 360.507812 C 643.234375 360.507812 639.585938 357.679688 638.535156 353.632812 L 638.484375 353.441406 C 637.492188 349.621094 635.4375 346.085938 632.546875 343.21875 C 628.007812 338.722656 625.425781 332.828125 625.464844 327.054688 C 625.503906 321.09375 627.875 315.457031 632.136719 311.179688 C 636.410156 306.890625 642.03125 304.527344 647.964844 304.527344 C 660.1875 304.527344 670.515625 314.984375 670.515625 327.359375 C 670.515625 333.425781 668.128906 339.097656 663.789062 343.332031 C 660.988281 346.070312 658.964844 349.59375 657.949219 353.515625 L 657.917969 353.632812 C 656.867188 357.679688 653.214844 360.507812 649.039062 360.507812 " fill-opacity="1" fill-rule="nonzero"/><path fill="#000000" d="M 651.421875 323.511719 C 651.117188 323.789062 650.839844 324.128906 650.605469 324.542969 C 649.046875 327.296875 649.550781 328.761719 649.992188 329.390625 C 650.449219 330.046875 651.238281 330.382812 652.007812 330.253906 C 652.617188 330.152344 653.058594 329.769531 653.222656 329.207031 C 653.792969 327.203125 652.828125 324.878906 651.421875 323.511719 Z M 644.882812 323.707031 C 644.199219 324.496094 643.640625 325.566406 643.238281 326.894531 C 642.789062 328.371094 642.933594 329.617188 643.628906 330.316406 C 644.078125 330.769531 644.707031 330.929688 645.3125 330.75 C 646.054688 330.523438 646.59375 329.835938 646.789062 328.855469 C 647.085938 327.394531 646.273438 324.53125 644.882812 323.707031 Z M 649.203125 357.375 C 648.953125 357.375 648.75 357.171875 648.75 356.917969 C 648.796875 345.144531 655.664062 331.855469 657.039062 329.3125 C 657.855469 327.804688 658.167969 326.570312 657.992188 325.542969 C 657.734375 324.019531 656.957031 323.035156 655.679688 322.628906 C 654.773438 322.335938 653.371094 322.308594 652.164062 322.976562 C 653.710938 324.550781 654.761719 327.113281 654.09375 329.453125 C 653.835938 330.355469 653.113281 330.992188 652.15625 331.148438 C 651.046875 331.335938 649.90625 330.851562 649.25 329.910156 C 648.6875 329.105469 648.015625 327.28125 649.816406 324.097656 C 650.078125 323.636719 650.378906 323.25 650.710938 322.929688 C 650.671875 322.902344 650.628906 322.875 650.589844 322.847656 C 649.679688 322.273438 648.179688 321.855469 646.707031 322.40625 C 646.296875 322.558594 645.910156 322.78125 645.550781 323.0625 C 647.203125 324.25 648.027344 327.308594 647.679688 329.039062 C 647.414062 330.355469 646.644531 331.292969 645.574219 331.617188 C 644.65625 331.894531 643.664062 331.640625 642.988281 330.957031 C 642.046875 330.011719 641.824219 328.4375 642.371094 326.632812 C 642.808594 325.195312 643.378906 324.144531 643.984375 323.371094 C 641.542969 322.714844 639.839844 323.882812 639.375 325.03125 C 638.828125 326.378906 639.027344 327.988281 639.894531 329.226562 C 641.910156 332.109375 646.617188 340.523438 646.847656 356.378906 C 646.851562 356.628906 646.652344 356.835938 646.402344 356.839844 C 646.402344 356.839844 646.398438 356.839844 646.394531 356.839844 C 646.148438 356.839844 645.945312 356.640625 645.945312 356.390625 C 645.714844 340.789062 641.117188 332.5625 639.152344 329.746094 C 638.097656 328.234375 637.867188 326.34375 638.535156 324.691406 C 639.269531 322.871094 641.742188 321.644531 644.667969 322.632812 C 645.265625 322.078125 645.867188 321.75 646.390625 321.554688 C 648.175781 320.890625 649.980469 321.390625 651.074219 322.082031 C 651.199219 322.164062 651.328125 322.25 651.453125 322.34375 C 652.960938 321.375 654.796875 321.390625 655.957031 321.761719 C 657.976562 322.414062 658.664062 324.09375 658.882812 325.390625 C 659.097656 326.644531 658.761719 328.027344 657.835938 329.746094 C 656.476562 332.253906 649.703125 345.363281 649.65625 356.921875 C 649.65625 357.171875 649.453125 357.375 649.203125 357.375 " fill-opacity="1" fill-rule="nonzero"/><path fill="#000000" d="M 658.089844 341.535156 C 657.941406 341.535156 657.792969 341.460938 657.707031 341.324219 C 657.574219 341.109375 657.636719 340.828125 657.851562 340.695312 C 661.746094 338.242188 664.554688 334.257812 665.546875 329.761719 C 665.601562 329.519531 665.84375 329.363281 666.085938 329.417969 C 666.332031 329.472656 666.484375 329.714844 666.429688 329.960938 C 665.386719 334.691406 662.433594 338.882812 658.332031 341.464844 C 658.257812 341.511719 658.175781 341.535156 658.089844 341.535156 " fill-opacity="1" fill-rule="nonzero"/><path fill="#000000" d="M 634.324219 339.003906 C 634.199219 339.003906 634.074219 338.949219 633.984375 338.851562 C 631.023438 335.511719 629.390625 331.210938 629.390625 326.738281 C 629.390625 319.765625 633.265625 313.507812 639.503906 310.40625 C 639.730469 310.292969 640 310.382812 640.113281 310.609375 C 640.222656 310.832031 640.132812 311.105469 639.90625 311.214844 C 633.980469 314.164062 630.296875 320.113281 630.296875 326.738281 C 630.296875 330.988281 631.847656 335.074219 634.664062 338.246094 C 634.828125 338.433594 634.8125 338.722656 634.625 338.886719 C 634.539062 338.964844 634.429688 339.003906 634.324219 339.003906 " fill-opacity="1" fill-rule="nonzero"/><path fill="#fefefe" d="M 649.367188 362.785156 C 649.148438 362.785156 648.957031 362.628906 648.917969 362.40625 C 648.878906 362.160156 649.042969 361.925781 649.289062 361.882812 C 650.027344 361.757812 650.746094 361.597656 651.425781 361.402344 C 651.664062 361.335938 651.914062 361.476562 651.984375 361.714844 C 652.050781 361.957031 651.910156 362.207031 651.671875 362.277344 C 650.960938 362.476562 650.210938 362.644531 649.441406 362.777344 C 649.417969 362.78125 649.390625 362.785156 649.367188 362.785156 " fill-opacity="1" fill-rule="nonzero"/><path fill="#fefefe" d="M 645.933594 366.972656 C 645.6875 366.972656 645.484375 366.773438 645.480469 366.523438 C 645.480469 366.273438 645.679688 366.070312 645.929688 366.066406 C 647.601562 366.050781 650.054688 365.820312 652.242188 364.792969 C 652.46875 364.6875 652.738281 364.785156 652.84375 365.011719 C 652.949219 365.242188 652.851562 365.511719 652.625 365.617188 C 650.289062 366.710938 647.699219 366.957031 645.9375 366.972656 C 645.9375 366.972656 645.9375 366.972656 645.933594 366.972656 " fill-opacity="1" fill-rule="nonzero"/><path fill="#000000" d="M 726.089844 363.300781 C 725.84375 363.300781 725.644531 363.101562 725.636719 362.855469 L 725.605469 361.246094 C 725.597656 360.996094 725.796875 360.789062 726.046875 360.785156 C 726.050781 360.785156 726.050781 360.785156 726.054688 360.785156 C 726.300781 360.785156 726.503906 360.980469 726.507812 361.230469 L 726.542969 362.835938 C 726.550781 363.085938 726.351562 363.296875 726.101562 363.300781 C 726.097656 363.300781 726.09375 363.300781 726.089844 363.300781 " fill-opacity="1" fill-rule="nonzero"/><path fill="#000000" d="M 726.210938 368.925781 C 725.964844 368.925781 725.761719 368.730469 725.757812 368.484375 L 725.722656 366.875 C 725.71875 366.625 725.917969 366.417969 726.167969 366.414062 C 726.167969 366.414062 726.175781 366.414062 726.175781 366.414062 C 726.421875 366.414062 726.625 366.609375 726.628906 366.855469 L 726.664062 368.464844 C 726.667969 368.714844 726.472656 368.921875 726.21875 368.925781 C 726.21875 368.925781 726.214844 368.925781 726.210938 368.925781 " fill-opacity="1" fill-rule="nonzero"/><path fill="#000000" d="M 722.574219 365.339844 C 722.324219 365.339844 722.121094 365.136719 722.121094 364.886719 C 722.117188 364.636719 722.320312 364.433594 722.570312 364.429688 L 724.152344 364.417969 C 724.152344 364.417969 724.15625 364.417969 724.15625 364.417969 C 724.402344 364.417969 724.605469 364.621094 724.609375 364.867188 C 724.609375 365.117188 724.410156 365.324219 724.160156 365.324219 L 722.578125 365.339844 C 722.574219 365.339844 722.574219 365.339844 722.574219 365.339844 " fill-opacity="1" fill-rule="nonzero"/><path fill="#000000" d="M 728.113281 365.292969 C 727.863281 365.292969 727.660156 365.09375 727.660156 364.84375 C 727.65625 364.59375 727.859375 364.390625 728.109375 364.386719 L 729.691406 364.375 C 729.9375 364.367188 730.144531 364.574219 730.148438 364.824219 C 730.148438 365.074219 729.949219 365.28125 729.699219 365.28125 L 728.117188 365.292969 C 728.113281 365.292969 728.113281 365.292969 728.113281 365.292969 " fill-opacity="1" fill-rule="nonzero"/><path fill="#000000" d="M 819.101562 287.707031 C 818.855469 287.707031 818.652344 287.511719 818.648438 287.261719 L 818.613281 285.65625 C 818.609375 285.40625 818.804688 285.199219 819.058594 285.191406 C 819.058594 285.191406 819.0625 285.191406 819.066406 285.191406 C 819.3125 285.191406 819.511719 285.386719 819.519531 285.636719 L 819.554688 287.242188 C 819.558594 287.492188 819.359375 287.703125 819.113281 287.707031 C 819.105469 287.707031 819.105469 287.707031 819.101562 287.707031 " fill-opacity="1" fill-rule="nonzero"/><path fill="#000000" d="M 819.222656 293.335938 C 818.976562 293.335938 818.777344 293.136719 818.769531 292.890625 L 818.734375 291.285156 C 818.730469 291.03125 818.925781 290.824219 819.179688 290.820312 C 819.179688 290.820312 819.183594 290.820312 819.1875 290.820312 C 819.433594 290.820312 819.636719 291.015625 819.640625 291.265625 L 819.675781 292.871094 C 819.679688 293.125 819.484375 293.328125 819.230469 293.335938 C 819.230469 293.335938 819.226562 293.335938 819.222656 293.335938 " fill-opacity="1" fill-rule="nonzero"/><path fill="#000000" d="M 815.582031 289.746094 C 815.335938 289.746094 815.132812 289.546875 815.128906 289.296875 C 815.125 289.046875 815.328125 288.839844 815.578125 288.839844 L 817.160156 288.828125 C 817.421875 288.820312 817.617188 289.027344 817.617188 289.277344 C 817.621094 289.527344 817.421875 289.730469 817.167969 289.734375 L 815.585938 289.746094 C 815.585938 289.746094 815.582031 289.746094 815.582031 289.746094 " fill-opacity="1" fill-rule="nonzero"/><path fill="#000000" d="M 821.121094 289.703125 C 820.871094 289.703125 820.667969 289.5 820.667969 289.253906 C 820.667969 289.003906 820.867188 288.800781 821.117188 288.796875 L 822.703125 288.785156 C 822.953125 288.785156 823.15625 288.984375 823.15625 289.234375 C 823.160156 289.484375 822.957031 289.6875 822.707031 289.691406 L 821.125 289.703125 C 821.125 289.703125 821.125 289.703125 821.121094 289.703125 " fill-opacity="1" fill-rule="nonzero"/><path fill="#000000" d="M 738.789062 505.550781 C 732.59375 505.550781 726.421875 504.96875 720.378906 503.8125 C 720.132812 503.765625 719.972656 503.527344 720.019531 503.28125 C 720.066406 503.035156 720.308594 502.875 720.550781 502.921875 C 728.285156 504.402344 736.234375 504.933594 744.179688 504.496094 C 763.253906 503.449219 781.40625 496.894531 796.675781 485.539062 C 796.878906 485.386719 797.160156 485.429688 797.3125 485.632812 C 797.460938 485.832031 797.417969 486.117188 797.214844 486.265625 C 781.800781 497.726562 763.480469 504.34375 744.226562 505.402344 C 742.414062 505.5 740.597656 505.550781 738.789062 505.550781 " fill-opacity="1" fill-rule="nonzero"/><path fill="#000000" d="M 796.945312 486.355469 C 796.808594 486.355469 796.671875 486.292969 796.582031 486.171875 C 796.433594 485.972656 796.472656 485.6875 796.675781 485.539062 C 797.378906 485.015625 798.085938 484.472656 798.777344 483.929688 C 798.972656 483.777344 799.257812 483.8125 799.414062 484.007812 C 799.566406 484.207031 799.535156 484.492188 799.335938 484.644531 C 798.640625 485.191406 797.925781 485.738281 797.214844 486.265625 C 797.132812 486.328125 797.039062 486.355469 796.945312 486.355469 " fill-opacity="1" fill-rule="nonzero"/><path fill="#000000" d="M 740.175781 513.144531 C 739.925781 513.144531 739.722656 512.945312 739.722656 512.695312 C 739.722656 512.445312 739.921875 512.238281 740.171875 512.238281 C 765.347656 512.054688 789.828125 503.335938 809.097656 487.691406 C 809.292969 487.53125 809.578125 487.5625 809.734375 487.757812 C 809.894531 487.953125 809.863281 488.238281 809.667969 488.394531 C 800.121094 496.148438 789.394531 502.214844 777.785156 506.429688 C 765.773438 510.792969 753.121094 513.050781 740.179688 513.144531 C 740.175781 513.144531 740.175781 513.144531 740.175781 513.144531 " fill-opacity="1" fill-rule="nonzero"/><path fill="#000000" d="M 731.191406 513.878906 L 733.871094 515.371094 L 733.277344 512.105469 Z M 734.488281 516.6875 C 734.414062 516.6875 734.335938 516.667969 734.269531 516.628906 L 730.179688 514.351562 C 730.050781 514.28125 729.964844 514.148438 729.949219 514 C 729.933594 513.851562 729.992188 513.707031 730.105469 513.609375 L 733.289062 510.90625 C 733.414062 510.804688 733.582031 510.773438 733.734375 510.828125 C 733.886719 510.882812 734 511.011719 734.027344 511.171875 L 734.933594 516.152344 C 734.964844 516.324219 734.894531 516.5 734.753906 516.601562 C 734.675781 516.660156 734.582031 516.6875 734.488281 516.6875 " fill-opacity="1" fill-rule="nonzero"/><path fill="#000000" d="M 771.265625 284.359375 C 771.199219 284.359375 771.128906 284.34375 771.066406 284.3125 C 770.878906 284.21875 752.199219 275.230469 726.503906 278.183594 C 726.261719 278.210938 726.03125 278.035156 726.003906 277.785156 C 725.972656 277.539062 726.152344 277.3125 726.398438 277.28125 C 752.371094 274.296875 771.277344 283.40625 771.464844 283.496094 C 771.691406 283.609375 771.78125 283.878906 771.671875 284.105469 C 771.59375 284.265625 771.433594 284.359375 771.265625 284.359375 " fill-opacity="1" fill-rule="nonzero"/><path fill="#000000" d="M 782.71875 285.503906 C 782.625 285.503906 782.53125 285.476562 782.449219 285.414062 C 762.839844 270.738281 738.234375 273.351562 737.984375 273.378906 C 737.742188 273.40625 737.515625 273.226562 737.484375 272.976562 C 737.457031 272.730469 737.636719 272.503906 737.882812 272.476562 C 737.945312 272.46875 744.242188 271.777344 752.894531 272.929688 C 760.886719 274 772.589844 276.902344 782.992188 284.6875 C 783.191406 284.835938 783.230469 285.121094 783.082031 285.324219 C 782.996094 285.441406 782.855469 285.503906 782.71875 285.503906 " fill-opacity="1" fill-rule="nonzero"/><path fill="#000000" d="M 720.785156 279.609375 L 723.667969 280.652344 L 722.558594 277.527344 Z M 724.414062 281.859375 C 724.363281 281.859375 724.308594 281.851562 724.261719 281.832031 L 719.859375 280.238281 C 719.722656 280.1875 719.613281 280.070312 719.574219 279.929688 C 719.539062 279.785156 719.574219 279.628906 719.671875 279.519531 L 722.378906 276.339844 C 722.484375 276.21875 722.644531 276.160156 722.804688 276.1875 C 722.964844 276.21875 723.097656 276.332031 723.152344 276.484375 L 724.839844 281.253906 C 724.898438 281.417969 724.859375 281.605469 724.734375 281.726562 C 724.648438 281.8125 724.53125 281.859375 724.414062 281.859375 " fill-opacity="1" fill-rule="nonzero"/><path fill="#000000" d="M 787.257812 287.519531 C 786.835938 287.519531 786.414062 287.609375 786.015625 287.785156 C 784.457031 288.492188 783.746094 290.363281 784.433594 291.964844 C 784.769531 292.742188 785.386719 293.339844 786.164062 293.644531 C 786.925781 293.941406 787.753906 293.917969 788.5 293.582031 C 790.0625 292.882812 790.773438 291.007812 790.085938 289.40625 C 789.75 288.625 789.132812 288.03125 788.355469 287.726562 C 788 287.589844 787.628906 287.519531 787.257812 287.519531 Z M 787.261719 294.757812 C 786.777344 294.757812 786.296875 294.667969 785.832031 294.488281 C 784.828125 294.097656 784.035156 293.328125 783.601562 292.324219 C 782.71875 290.269531 783.636719 287.863281 785.648438 286.960938 C 786.617188 286.523438 787.695312 286.496094 788.683594 286.878906 C 789.691406 287.273438 790.480469 288.042969 790.917969 289.046875 C 791.800781 291.101562 790.882812 293.503906 788.871094 294.410156 C 788.355469 294.644531 787.808594 294.757812 787.261719 294.757812 " fill-opacity="1" fill-rule="nonzero"/></svg>